<?xml version="1.0" standalone="no"?>
<!DOCTYPE svg PUBLIC "-//W3C//DTD SVG 1.1//EN" "http://www.w3.org/Graphics/SVG/1.1/DTD/svg11.dtd" >
<svg>
<metadata>
Created by FontForge 20110222 at Mon Mar  7 13:17:24 2011
 By www-data
Copyright (c) 2010, Sebastian Kosch (sebastian@aldusleaf.org),
with Reserved Font Name "Crimson Text".
This Font Software is licensed under the SIL Open Font License, Version 1.1.
This license is available with a FAQ at: http://scripts.sil.org/OFL
</metadata>
<defs>
<font id="CrimsonText-Italic" horiz-adv-x="410" >
  <font-face 
    font-family="Crimson Text"
    font-weight="400"
    font-style="italic"
    font-stretch="normal"
    units-per-em="1024"
    panose-1="2 0 5 3 0 0 0 0 0 0"
    ascent="717"
    descent="-307"
    x-height="435"
    cap-height="658"
    bbox="-120.04 -269 1093 858"
    underline-thickness="51"
    underline-position="-102"
    slope="-11"
    stemh="42"
    stemv="71"
    unicode-range="U+0020-20AC"
  />
    <missing-glyph />
    <glyph glyph-name="space" unicode=" " horiz-adv-x="228" 
 />
    <glyph glyph-name="exclam" unicode="!" horiz-adv-x="187" 
d="M-6 36c0 37 29 66 66 66c24 0 43 -22 43 -46c0 -38 -27 -70 -65 -70c-26 0 -44 24 -44 50zM166 631c21 0 31 -22 31 -43c0 -27 -63 -236 -109 -418c-3 -14 -24 -22 -28 -22c-5 0 -6 11 -6 18c0 4 32 263 53 411c3 19 27 54 59 54z" />
    <glyph glyph-name="quotedbl" unicode="&#x22;" horiz-adv-x="297" 
d="M112 698c28 0 39 -6 28 -65c-11 -56 -40 -117 -59 -184c-3 -10 -14 -15 -21 -15s-16 5 -15 13c9 90 0 143 0 189c3 18 31 62 67 62zM262 698c28 0 39 -6 28 -65c-11 -56 -40 -117 -59 -184c-3 -10 -14 -15 -21 -15s-16 5 -15 13c9 90 0 143 0 189c3 18 31 62 67 62z" />
    <glyph glyph-name="numbersign" unicode="#" horiz-adv-x="419" 
d="M341 373h76c5 0 7 -1 7 -5c0 -16 -14 -51 -25 -51h-77l-29 -86h76c5 0 7 -2 7 -6c0 -16 -14 -50 -25 -50h-77l-51 -151c-1 -3 -5 -8 -33 -8c-11 0 -22 2 -22 5c0 0 1 2 1 3c1 4 52 151 52 151h-87l-51 -151c-1 -3 -5 -8 -33 -8c-11 0 -22 2 -22 5c0 0 1 2 1 3
c1 4 52 151 52 151h-76c-5 0 -7 2 -7 6c0 16 14 50 25 50h77l29 86h-76c-5 0 -7 2 -7 6c0 16 14 50 25 50h77l51 151c1 3 5 8 33 8c11 0 22 -3 22 -6c0 0 -1 -1 -1 -2c-1 -4 -52 -151 -52 -151h87l51 151c1 3 5 8 33 8c11 0 22 -3 22 -6c0 0 -1 -1 -1 -2
c-1 -4 -52 -151 -52 -151zM269 317h-87l-29 -86h87z" />
    <glyph glyph-name="dollar" unicode="$" horiz-adv-x="430" 
d="M156 -52c-8 0 -32 2 -31 9l253 726c7 0 32 0 31 -7zM203 -8c-56 0 -116 16 -151 23c-5 35 -3 109 3 151c1 5 11 8 18 8c8 0 17 -5 19 -8c2 -41 11 -135 121 -135c56 0 118 36 132 110c15 77 -39 104 -77 128c-93 58 -163 108 -144 204c19 99 118 171 210 171
c47 0 108 -19 130 -23c-3 -41 -5 -79 -16 -137c-2 -8 -4 -8 -8 -8c-9 1 -22 3 -22 11c2 33 -21 115 -97 115c-65 0 -107 -32 -120 -97c-13 -68 30 -101 85 -139c71 -50 161 -100 142 -196c-21 -106 -126 -178 -225 -178z" />
    <glyph glyph-name="percent" unicode="%" horiz-adv-x="618" 
d="M230 646c-63 0 -109 -90 -109 -168c0 -51 17 -112 65 -112c63 0 102 96 102 175c0 47 -13 105 -58 105zM240 673c77 0 113 -64 113 -132c0 -96 -81 -203 -179 -203c-76 0 -116 63 -116 131c0 98 80 204 182 204zM631 650l-596 -650c-4 -4 -20 -12 -34 -12
c-7 0 -13 3 -15 11l596 653c4 4 12 11 22 11c12 0 23 -3 27 -13zM442 300c-63 0 -109 -90 -109 -168c0 -51 17 -112 65 -112c63 0 102 96 102 175c0 47 -13 105 -58 105zM452 327c77 0 113 -64 113 -132c0 -96 -81 -203 -179 -203c-76 0 -116 63 -116 131
c0 98 80 204 182 204z" />
    <glyph glyph-name="ampersand" unicode="&#x26;" horiz-adv-x="622" 
d="M326 280c0 -41 69 -20 69 -63c0 -22 -14 -42 -33 -47c-26 0 -77 32 -77 88c0 75 69 128 144 128c30 0 46 -2 76 -2c42 0 88 18 88 60c0 19 -13 36 -32 36c-22 0 -31 -18 -53 -18c-17 0 -29 16 -29 33c0 20 9 30 26 43c73 0 125 -34 125 -94c0 -58 -44 -98 -112 -98
c-10 0 -16 1 -26 2c28 -25 55 -71 55 -124c0 -136 -144 -238 -291 -238c-127 0 -248 83 -248 210c0 87 69 163 126 185c-16 18 -38 57 -38 98c0 93 100 156 182 156c58 0 115 -34 115 -92c0 -41 -40 -81 -60 -81c-5 0 -9 3 -9 7c0 8 10 16 10 45c0 43 -35 76 -78 76
c-62 0 -110 -54 -110 -116c0 -33 17 -65 33 -79c14 4 23 7 39 7c33 0 75 -13 75 -42c0 -27 -35 -40 -65 -40c-26 0 -48 9 -62 21c-38 -32 -72 -76 -72 -137c0 -97 74 -175 174 -175c107 0 211 92 211 208c0 50 -33 98 -83 98c-35 0 -70 -20 -70 -55z" />
    <glyph glyph-name="quotesingle" unicode="'" horiz-adv-x="147" 
d="M112 698c28 0 39 -6 28 -65c-11 -56 -40 -117 -59 -184c-3 -10 -14 -15 -21 -15s-16 5 -15 13c9 90 0 143 0 189c3 18 31 62 67 62z" />
    <glyph glyph-name="parenleft" unicode="(" horiz-adv-x="292" 
d="M21 174c0 297 203 574 277 574c6 0 9 -12 9 -20c0 -3 -1 -6 -2 -7c-76 -36 -225 -303 -225 -557c0 -141 42 -244 67 -259c1 0 1 -2 1 -3c0 -7 -11 -23 -18 -23c-41 0 -109 122 -109 295z" />
    <glyph glyph-name="parenright" unicode=")" horiz-adv-x="276" 
d="M269 457c0 -336 -222 -578 -277 -578c-5 0 -9 10 -9 18c0 4 1 7 3 8c43 20 224 250 224 572c0 126 -28 223 -65 244c0 0 -1 1 -1 2c0 6 10 25 17 25c49 0 108 -119 108 -291z" />
    <glyph glyph-name="asterisk" unicode="*" horiz-adv-x="343" 
d="M201 514c25 0 72 119 123 119c14 0 23 -10 23 -24c0 -57 -133 -86 -133 -118c0 -27 124 -18 124 -72c0 -19 -17 -36 -37 -36c-43 0 -76 83 -101 83c-23 0 -12 -68 -30 -125c-9 -30 -27 -43 -41 -43c-13 0 -23 11 -23 28c0 40 65 112 65 138c0 5 -2 9 -9 9
c-21 0 -85 -41 -123 -41c-17 0 -30 8 -30 24c0 13 7 44 61 44c29 0 58 -7 78 -7c22 0 25 10 25 17c0 24 -51 70 -51 113c0 25 17 41 34 41c31 0 33 -44 33 -84c0 -6 -2 -66 12 -66z" />
    <glyph glyph-name="plus" unicode="+" horiz-adv-x="457" 
d="M234 470c3 14 52 18 56 18c9 0 11 -5 10 -9c0 0 -23 -134 -35 -196c-1 -3 0 -5 3 -5h181c3 0 4 -3 4 -9c0 -14 -9 -34 -21 -47h-179c-3 0 -4 -2 -4 -4l-35 -188c-2 -11 -32 -18 -50 -18c-11 0 -16 5 -15 9c0 0 25 140 36 196c0 2 1 5 -4 5h-179c-3 0 -5 3 -5 9
c0 14 11 33 22 47h178c3 0 4 2 4 4c12 60 19 118 33 188z" />
    <glyph glyph-name="comma" unicode="," horiz-adv-x="209" 
d="M-5 -143c0 10 95 69 95 138c0 28 -13 57 -13 71c0 35 42 63 79 63c8 0 15 -2 22 -4c2 -5 3 -13 3 -23c0 -22 -7 -50 -11 -67c-27 -118 -157 -198 -157 -198c-4 0 -18 10 -18 20z" />
    <glyph glyph-name="hyphen" unicode="-" horiz-adv-x="295" 
d="M40 261l227 12c5 0 6 -7 6 -12c0 -13 -13 -50 -23 -51l-226 -11c-3 0 -5 7 -5 15c0 11 10 46 21 47z" />
    <glyph glyph-name="period" unicode="." horiz-adv-x="169" 
d="M141 57c0 -37 -33 -71 -66 -71c-26 0 -44 20 -44 47c0 37 34 69 67 69c26 0 43 -19 43 -45z" />
    <glyph glyph-name="slash" unicode="/" horiz-adv-x="463" 
d="M478 755l-424 -767c-3 -5 -16 -21 -51 -21c-12 0 -14 1 -18 5l425 767c10 17 26 22 44 22c9 0 22 -5 24 -6z" />
    <glyph glyph-name="zero" unicode="0" 
d="M147 320c-31 -157 -8 -285 61 -285c83 0 151 133 182 290s7 278 -62 278c-78 0 -150 -126 -181 -283zM65 319c34 174 137 322 265 322c130 0 174 -148 140 -322s-137 -322 -265 -322c-126 0 -174 148 -140 322z" />
    <glyph glyph-name="one" unicode="1" 
d="M198 496c-7 4 -13 18 -12 25c0 2 1 4 3 6c109 70 180 115 183 115h2c6 0 8 -14 8 -19c0 0 -16 -33 -28 -94l-76 -394c-6 -33 -11 -62 -10 -89c1 -11 51 -20 58 -20c3 0 1 -11 0 -18c-1 -5 -2 -9 -3 -11c-37 2 -74 5 -111 5s-71 -3 -109 -5c-4 5 1 29 6 29
c11 0 64 9 69 20c9 20 12 38 16 57l70 360c12 60 8 66 0 66c-12 0 -48 -24 -66 -33z" />
    <glyph glyph-name="two" unicode="2" 
d="M415 156c-19 -51 -35 -88 -53 -140c-5 -14 -13 -16 -22 -16h-305c-3 8 -4 26 -3 33c142 128 305 307 328 426c14 74 -16 113 -69 113c-74 0 -125 -63 -140 -83c-7 0 -15 12 -14 16c11 25 92 137 205 137c89 0 117 -87 102 -163c-30 -153 -232 -326 -317 -400
c-3 -3 -4 -7 0 -7h171c54 0 64 34 86 78c3 5 9 10 15 10c4 0 15 -2 16 -4z" />
    <glyph glyph-name="three" unicode="3" 
d="M337 642c47 0 104 -46 88 -128c-13 -65 -56 -102 -103 -135c47 -19 115 -74 96 -173c-25 -130 -137 -211 -257 -211c-57 0 -91 10 -115 30c-5 4 -6 21 -4 29c6 29 22 47 44 47c19 0 29 -29 46 -45c21 -19 41 -21 66 -21c44 0 113 33 135 145c16 81 -29 141 -90 141
c-20 0 -50 -4 -62 -7c-3 5 -4 18 -2 26c1 4 2 7 4 10c84 15 152 60 169 146c9 45 -22 87 -64 87c-59 0 -90 -44 -100 -51c-6 0 -8 17 -6 26c38 46 82 84 155 84z" />
    <glyph glyph-name="four" unicode="4" 
d="M50 174c-4 8 -1 25 0 31l365 428c7 8 17 12 24 12c6 0 12 -2 10 -10l-79 -403h67c7 0 7 -4 6 -7c-4 -22 -11 -42 -16 -51h-68l-34 -175s-4 -5 -40 -5c-22 0 -34 1 -33 8l34 172h-236zM349 498c1 3 -1 9 -3 9l-2 -2l-220 -261c-1 -1 -1 -2 -1 -3c-1 -4 1 -9 5 -9h169z" />
    <glyph glyph-name="five" unicode="5" 
d="M203 35c44 0 109 36 130 145c12 62 0 143 -108 143c-20 0 -64 -5 -83 -11c-3 2 -10 9 -14 14l102 297c66 2 186 6 221 14c2 -4 3 -10 1 -21c-3 -17 -10 -40 -16 -55c-43 -13 -174 -12 -189 -15c-6 -1 -6 -4 -8 -8c-25 -64 -39 -107 -58 -160c20 8 65 13 90 13
c100 0 166 -85 147 -185c-24 -124 -131 -211 -252 -211c-57 0 -95 10 -119 30c-5 4 -6 21 -4 29c6 29 22 47 44 47c19 0 29 -29 46 -45c21 -19 45 -21 70 -21z" />
    <glyph glyph-name="six" unicode="6" 
d="M284 372c86 0 146 -65 146 -146c0 -116 -116 -232 -225 -232c-88 0 -147 56 -147 168c0 136 88 341 395 475c7 0 8 -20 8 -25c-115 -49 -219 -121 -279 -262c-34 -80 -44 -143 -44 -198c0 -61 23 -119 81 -119c54 0 131 73 131 184c0 62 -27 112 -96 112
c-23 0 -43 -11 -53 -15c-4 3 -6 10 -6 14c0 26 68 44 89 44z" />
    <glyph glyph-name="seven" unicode="7" 
d="M113 -6c-14 0 -29 19 -27 28l350 531h-224c-33 0 -57 -45 -74 -79c-3 -6 -24 -7 -32 -3c17 45 43 105 58 150c3 8 9 12 17 12h269c24 0 57 3 63 3s5 -4 4 -9c-3 -13 -22 -39 -40 -67l-354 -563c-2 -2 -5 -3 -10 -3z" />
    <glyph glyph-name="eight" unicode="8" 
d="M335 643c83 0 141 -57 123 -152c-13 -67 -85 -118 -133 -147c-4 -1 -3 -4 -1 -6c49 -34 103 -99 89 -171c-19 -100 -119 -176 -212 -176c-102 0 -160 66 -141 163c17 88 111 139 152 164c3 2 4 5 2 6c-34 25 -79 82 -65 156c17 85 104 163 186 163zM323 608
c-45 0 -89 -46 -103 -116c-12 -62 41 -106 72 -128c2 -1 3 -2 5 -2s3 0 6 2c43 27 76 67 87 122c11 58 -11 122 -67 122zM210 27c61 0 109 43 122 111c16 83 -78 149 -89 157c-2 1 -2 2 -5 2c-1 0 -3 0 -4 -1c-58 -35 -88 -75 -100 -139c-16 -82 27 -130 76 -130z" />
    <glyph glyph-name="nine" unicode="9" 
d="M245 260c-86 0 -141 61 -141 142c0 116 110 231 219 231c88 0 147 -56 147 -168c0 -136 -73 -345 -386 -471c-13 3 -16 10 -17 21c115 49 221 121 281 262c34 80 40 143 40 198c0 61 -21 119 -79 119c-54 0 -124 -72 -124 -183c0 -62 26 -106 95 -106c35 0 37 4 47 8
c4 -3 6 -10 6 -14c0 -26 -67 -39 -88 -39z" />
    <glyph glyph-name="colon" unicode=":" horiz-adv-x="180" 
d="M65 367c0 38 35 71 69 71c27 0 45 -20 45 -47c0 -38 -34 -73 -68 -73c-27 0 -46 21 -46 49zM1 34c0 38 34 72 68 72c27 0 45 -21 45 -48c0 -38 -34 -72 -68 -72c-27 0 -45 21 -45 48z" />
    <glyph glyph-name="semicolon" unicode=";" horiz-adv-x="239" 
d="M125 367c0 38 35 71 69 71c27 0 45 -20 45 -47c0 -38 -34 -73 -68 -73c-27 0 -46 21 -46 49zM79 11c0 34 -11 40 -11 51c0 26 39 62 76 62c17 0 23 -15 23 -34c0 -18 -5 -40 -8 -56c-17 -87 -59 -128 -153 -199c-2 -1 -5 -2 -7 -2c-12 0 -14 22 -14 24c0 20 71 30 92 129
c1 6 2 15 2 25z" />
    <glyph glyph-name="less" unicode="&#x3c;" horiz-adv-x="406" 
d="M74 209l274 -168s2 -1 2 -5c0 -13 -20 -50 -25 -50c-1 0 -2 0 -4 1l-312 190c-6 4 -10 14 -10 26c0 14 6 29 23 38l381 187c2 1 3 1 4 1c3 0 7 -21 7 -35c0 -3 -1 -18 -5 -20z" />
    <glyph glyph-name="equal" unicode="=" horiz-adv-x="503" 
d="M20 117c0 0 -5 0 -5 6c0 3 14 50 23 50h416c5 0 6 -3 6 -5c0 -5 -10 -26 -18 -45c-4 -6 -7 -6 -7 -6h-415zM48 259c0 0 -4 0 -4 6c0 1 13 50 22 50h415c5 0 6 -3 6 -5c0 -5 -9 -26 -17 -45c-3 -6 -8 -6 -8 -6h-414z" />
    <glyph glyph-name="greater" unicode="&#x3e;" horiz-adv-x="419" 
d="M337 209l-272 165s-2 1 -2 4c0 7 21 52 26 52c1 0 2 -1 4 -2l307 -187c7 -4 12 -11 12 -20c0 -3 -2 -33 -24 -44l-385 -190c-2 -1 -4 -2 -6 -2c-5 0 -6 19 -6 48c0 5 5 8 5 8z" />
    <glyph glyph-name="question" unicode="?" horiz-adv-x="294" 
d="M64 32c0 38 32 70 65 70c26 0 45 -20 45 -46c0 -37 -35 -70 -68 -70c-26 0 -42 20 -42 46zM199 197c0 -4 -5 -13 -10 -16c-24 0 -98 42 -98 98c0 45 16 65 42 83l119 84c20 14 47 42 47 71c0 39 -22 60 -54 60c-44 0 -40 -47 -78 -47c-29 0 -34 34 -34 52
c5 15 36 49 74 49c83 0 145 -67 145 -129c0 -96 -41 -100 -159 -181c-25 -17 -33 -33 -33 -60c0 -29 28 -56 39 -64z" />
    <glyph glyph-name="at" unicode="@" horiz-adv-x="723" 
d="M324 -168c-233 -9 -343 180 -309 353c48 247 244 392 452 392c185 0 264 -186 233 -344c-38 -193 -144 -246 -217 -246c-65 0 -92 64 -84 105c0 2 -4 -1 -5 -2c-22 -29 -107 -97 -154 -97c-70 0 -85 80 -72 148c26 133 142 269 308 269l81 -9c-9 -26 -12 -32 -18 -53
l-65 -223c-26 -86 1 -98 25 -98c93 0 142 133 152 187c33 167 -44 314 -203 314c-169 0 -338 -129 -372 -305c-38 -197 33 -349 266 -349c31 0 59 10 67 13v-9c-3 -18 -33 -39 -85 -46zM419 170l43 152c3 11 10 27 -1 30c-85 31 -189 -43 -221 -209c-13 -70 15 -90 38 -90
c54 0 134 92 141 117z" />
    <glyph glyph-name="A" unicode="A" horiz-adv-x="606" 
d="M436 239c0 7 1 10 -101 10c-38 0 -50 -2 -93 -5c-6 0 -97 -155 -97 -189c0 -25 53 -31 55 -31s2 -3 2 -6c0 -7 -3 -17 -5 -21c-37 2 -54 5 -95 5c-43 0 -55 -3 -98 -5c-1 1 -2 5 -2 8c0 8 3 19 7 19c11 0 46 8 58 21c24 26 41 58 61 94l276 496c10 18 27 27 39 27
c3 0 6 -1 8 -2l83 -528c6 -37 8 -52 12 -72c5 -24 51 -36 58 -36c2 0 2 -2 2 -5c0 -6 -3 -18 -5 -22c-37 2 -63 5 -104 5c-43 0 -64 -3 -107 -5c-1 1 -1 3 -1 6c0 8 3 21 7 21c11 0 44 8 51 20c6 13 7 31 7 47c0 20 -10 90 -18 148zM348 298c29 0 46 0 75 2c2 0 4 2 4 4
c0 11 -25 166 -33 222c-123 -223 -123 -223 -123 -225c0 -1 0 -2 1 -2c23 -1 55 -1 76 -1z" />
    <glyph glyph-name="B" unicode="B" horiz-adv-x="528" 
d="M448 211c0 63 -34 120 -139 120c-32 0 -71 -1 -74 -15l-38 -200c-3 -18 -5 -29 -5 -48c0 -26 24 -27 60 -27c33 0 78 4 97 13c50 23 99 81 99 157zM538 215c0 -99 -95 -215 -276 -215h-127c-61 0 -110 -3 -110 -3c-1 1 -1 5 -1 9c0 10 3 20 7 20c11 0 59 10 65 23
c13 27 19 56 26 93l72 372c7 36 11 58 11 93c0 11 -45 24 -56 24c-1 0 -2 1 -2 4c0 8 3 19 7 23c0 0 46 -2 107 -2c87 0 76 1 131 1c69 0 166 -30 166 -129c0 -118 -127 -167 -126 -167c29 -5 106 -60 106 -146zM473 516c0 62 -32 100 -103 100c-67 0 -74 -6 -75 -13
l-45 -217c-2 -11 27 -13 59 -13c67 0 164 9 164 143z" />
    <glyph glyph-name="C" unicode="C" horiz-adv-x="580" 
d="M437 667c61 0 142 -23 213 -45c0 0 -18 -114 -20 -124s-16 -15 -24 -15c-6 0 -9 1 -11 3c0 31 -1 139 -163 139c-133 0 -281 -166 -281 -366c0 -122 67 -222 199 -222c55 0 96 14 126 33c56 34 75 83 80 83c4 0 21 -19 20 -25c-9 -17 -36 -75 -50 -91
c-20 -22 -120 -43 -205 -43c-167 0 -261 135 -261 273c0 177 164 400 377 400z" />
    <glyph glyph-name="D" unicode="D" horiz-adv-x="618" 
d="M424 658c184 0 264 -119 264 -253c0 -165 -128 -408 -394 -408c-41 0 -96 5 -158 5c-61 0 -111 -5 -111 -5c-1 1 -1 4 -1 8c0 10 1 19 5 19c11 0 61 12 67 25c14 29 19 56 26 93l72 372c6 33 13 71 11 93c-1 12 -45 24 -56 24c-1 0 -2 1 -2 4c0 8 3 19 7 23
c0 0 46 -2 107 -2c64 0 122 2 163 2zM422 614c-1 0 -108 -1 -120 -16c-18 -22 -21 -46 -27 -79l-73 -380c-4 -19 -4 -69 -1 -76c8 -18 101 -20 116 -20c174 0 283 185 283 371c0 109 -52 200 -178 200z" />
    <glyph glyph-name="E" unicode="E" horiz-adv-x="519" 
d="M261 656c86 0 192 8 293 8c-1 -14 -1 -26 -1 -39c0 -33 2 -64 2 -97c-3 -3 -11 -5 -18 -5c-6 0 -12 2 -12 7c-4 81 -42 86 -99 86h-54c-36 0 -71 -1 -76 -13c-10 -27 -13 -40 -18 -67l-32 -175c-1 -7 18 -8 37 -8h45c89 0 90 2 121 71c2 5 8 7 14 7s13 -2 15 -5l-37 -192
c-3 -2 -8 -4 -14 -4c-7 0 -13 2 -14 8c-3 57 -8 57 -15 63c-9 7 -62 8 -97 8c-26 0 -66 0 -68 -9l-29 -148c-7 -34 -11 -56 -11 -87c0 -20 0 -21 61 -21h45c35 0 91 2 121 17c20 10 52 48 78 101c2 4 8 6 15 6c9 0 19 -3 21 -6c-29 -54 -67 -122 -82 -166
c-101 0 -232 6 -316 6c-61 0 -111 -5 -111 -5c-1 1 -1 4 -1 8c0 10 1 19 5 19c11 0 61 12 67 25c14 29 19 56 26 93l72 372c6 33 13 71 11 93c-1 12 -45 24 -56 24c-1 0 -2 1 -2 4c0 8 3 19 7 23c0 0 46 -2 107 -2z" />
    <glyph glyph-name="F" unicode="F" horiz-adv-x="503" 
d="M136 2c-61 0 -111 -5 -111 -5c-1 1 -1 4 -1 8c0 10 1 19 5 19c11 0 61 12 67 25c14 29 19 56 26 93l72 372c6 33 13 71 11 93c-1 12 -45 24 -56 24c-1 0 -2 1 -2 4c0 8 3 19 7 23c0 0 46 -2 107 -2c84 0 190 8 291 8c-1 -14 -1 -26 -1 -39c0 -33 2 -64 2 -97
c-3 -3 -11 -5 -18 -5c-6 0 -12 2 -12 7c-4 81 -42 86 -99 86h-54c-36 0 -71 -1 -76 -13c-10 -27 -13 -40 -18 -67l-32 -175c-1 -7 18 -8 37 -8h45c89 0 90 2 121 71c2 5 8 7 14 7s13 -2 15 -5l-37 -192c-3 -2 -8 -4 -14 -4c-7 0 -13 2 -14 8c-3 57 -8 57 -15 63
c-9 7 -62 8 -97 8c-26 0 -66 0 -68 -9l-34 -172c-6 -30 -8 -50 -8 -79c0 -19 68 -25 68 -25c1 0 2 -6 2 -8c0 -6 -4 -17 -6 -19c-37 2 -71 5 -117 5z" />
    <glyph glyph-name="G" unicode="G" horiz-adv-x="616" 
d="M439 667c61 0 142 -23 213 -45c-13 -87 -18 -115 -21 -130c-1 -7 -14 -9 -23 -9c-6 0 -10 2 -11 5c0 31 -1 137 -163 137c-151 0 -279 -191 -279 -352c0 -120 65 -236 188 -236c48 0 90 4 125 22c6 3 9 8 11 17l28 142c0 1 4 16 4 30s-58 26 -69 26c-1 0 -2 2 -2 5
c0 8 4 18 8 22c43 -2 66 -5 109 -5s71 3 109 5c0 -10 -1 -27 -6 -27c-11 0 -70 -9 -74 -38l-24 -139c0 -2 -1 -5 -1 -7c0 -12 2 -20 2 -27c0 -8 -1 -14 -23 -22c-53 -20 -110 -47 -241 -47c-143 0 -239 114 -239 260c0 195 174 413 379 413z" />
    <glyph glyph-name="H" unicode="H" horiz-adv-x="627" 
d="M247 373c0 -7 22 -8 150 -8c121 0 130 2 131 8l27 139c7 35 11 56 11 92c0 17 -45 27 -56 27c-1 0 -2 2 -2 5c0 7 4 18 8 22c42 -2 65 -6 108 -6c41 0 69 4 107 6v-3c0 -8 -3 -24 -7 -24c-7 0 -56 -12 -61 -23c-12 -27 -19 -56 -26 -93l-73 -376c-7 -35 -11 -61 -11 -90
c0 -19 54 -25 54 -25c1 0 2 -2 2 -4c0 -6 -4 -19 -6 -23c-37 2 -63 5 -104 5c-43 0 -67 -3 -110 -5c-1 1 -2 5 -2 8c0 8 3 19 7 19c11 0 58 9 64 22c12 28 19 58 26 96l32 165v1c0 7 -17 8 -137 8c-145 0 -144 -1 -146 -12l-32 -165c-7 -35 -11 -61 -11 -90
c0 -19 54 -25 54 -25c1 0 2 -2 2 -4c0 -6 -4 -19 -6 -23c-37 2 -63 5 -104 5c-43 0 -67 -3 -110 -5c-1 1 -2 5 -2 8c0 8 3 19 7 19c11 0 58 9 64 22c12 28 19 58 26 96l71 370c7 35 11 56 11 92c0 17 -45 27 -56 27c-1 0 -2 2 -2 5c0 7 4 18 8 22c42 -2 65 -6 108 -6
c41 0 68 4 106 6v-3c0 -8 -3 -24 -7 -24c-7 0 -57 -12 -62 -23c-12 -27 -21 -64 -26 -93l-25 -141v-1z" />
    <glyph glyph-name="I" unicode="I" horiz-adv-x="263" 
d="M272 515l-71 -376c-7 -35 -11 -61 -11 -90c0 -19 54 -25 54 -25c1 0 2 -2 2 -4c0 -6 -4 -19 -6 -23c-37 2 -63 5 -104 5c-43 0 -67 -3 -110 -5c-1 1 -2 5 -2 8c0 8 3 19 7 19c11 0 58 9 64 22c12 28 19 58 26 96l71 370c7 35 11 56 11 92c0 17 -45 27 -56 27
c-1 0 -2 2 -2 5c0 7 4 18 8 22c42 -2 65 -6 108 -6c41 0 68 4 106 6v-3c0 -8 -3 -24 -7 -24c-7 0 -57 -12 -62 -23c-12 -27 -20 -64 -26 -93z" />
    <glyph glyph-name="J" unicode="J" horiz-adv-x="254" 
d="M115 109l75 403c6 35 11 56 11 92c0 17 -52 27 -63 27c-1 0 -2 2 -2 5c0 7 4 18 8 22c42 -2 65 -6 108 -6c41 0 68 4 106 6v-3c0 -8 -3 -24 -7 -24c-7 0 -50 -12 -55 -23c-12 -27 -21 -64 -26 -93l-75 -399c-50 -264 -189 -349 -269 -349c-4 5 -6 10 -6 18c0 2 1 6 1 6
c112 35 158 126 194 318z" />
    <glyph glyph-name="K" unicode="K" horiz-adv-x="642" 
d="M272 515l-71 -376c-7 -35 -11 -61 -11 -90c0 -19 54 -25 54 -25c1 0 2 -2 2 -4c0 -6 -4 -19 -6 -23c-37 2 -63 5 -104 5c-43 0 -67 -3 -110 -5c-1 1 -2 5 -2 8c0 8 3 19 7 19c11 0 58 9 64 22c12 28 19 58 26 96l71 370c7 35 11 56 11 92c0 17 -45 27 -56 27
c-1 0 -2 2 -2 5c0 7 4 18 8 22c42 -2 65 -6 108 -6c41 0 68 4 106 6v-3c0 -8 -3 -24 -7 -24c-7 0 -57 -12 -62 -23c-12 -27 -20 -64 -26 -93zM237 326c64 40 184 156 271 252c6 7 30 30 30 40c0 14 -40 17 -48 17c-2 0 -3 2 -3 6c0 5 2 12 5 17c34 -2 64 -6 98 -6
c41 0 69 4 107 6c0 -6 -1 -23 -6 -23c-9 -1 -68 -6 -106 -44l-244 -244c-4 -4 -5 -8 -5 -12c0 -6 3 -12 6 -16l204 -247c27 -33 98 -44 105 -44c2 0 2 -3 2 -6c0 -7 -3 -17 -5 -21c-17 -1 -56 -3 -75 -3c-70 0 -108 36 -116 46c0 0 -199 253 -220 282z" />
    <glyph glyph-name="L" unicode="L" horiz-adv-x="498" 
d="M202 139c-5 -29 -10 -43 -10 -74c0 -20 1 -21 62 -21h45c35 0 91 2 121 17c20 10 52 48 78 101c2 4 8 6 15 6c9 0 19 -3 21 -6c-29 -54 -67 -122 -82 -166c-101 0 -231 6 -316 6c-61 0 -111 -5 -111 -5c-1 1 -1 4 -1 8c0 10 3 24 7 24c11 0 59 7 65 20c13 27 19 56 26 93
l71 370c7 35 11 56 11 92c0 17 -45 27 -56 27c-1 0 -2 2 -2 5c0 7 4 18 8 22c42 -2 65 -6 108 -6c41 0 68 4 106 6v-3c0 -8 -3 -24 -7 -24c-7 0 -57 -12 -62 -23c-12 -27 -20 -64 -26 -93z" />
    <glyph glyph-name="M" unicode="M" horiz-adv-x="814" 
d="M634 523l63 135c9 -1 49 -3 79 -3c37 0 48 1 87 4c3 -7 0 -29 -5 -29c-17 0 -39 -10 -49 -24s-16 -27 -23 -89l-39 -382c-3 -26 -6 -48 -6 -79c0 -37 40 -30 58 -32c1 0 2 -5 2 -9c0 -7 -4 -16 -6 -18c-37 2 -66 5 -109 5c-41 0 -64 -3 -105 -5c-1 2 -2 1 -2 5
c0 8 4 22 7 22c11 0 57 6 63 18c15 27 16 55 20 90l40 390c1 10 3 32 3 39c0 4 -3 6 -6 6c-1 0 -2 -2 -3 -4l-261 -532c-5 -9 -27 -33 -45 -33c-3 0 -6 1 -8 2l-85 567s-1 2 -2 2s-3 -1 -3 -2l-117 -431c-9 -32 -19 -65 -19 -83c0 -16 67 -29 68 -29c2 0 2 -2 2 -6
c0 -7 -3 -17 -5 -21c-37 2 -63 5 -104 5c-43 0 -67 -3 -110 -5c-1 1 -2 7 -2 10c0 8 3 17 7 17c11 0 71 12 77 24c14 27 23 53 33 89l109 391c5 30 13 47 13 76c0 18 -63 27 -68 27c-2 0 -2 4 -2 7c0 7 2 17 6 20c37 -1 57 -2 94 -2s57 0 95 2c7 -63 47 -316 76 -495
c0 -1 0 -1 1 -1s3 1 3 2z" />
    <glyph glyph-name="N" unicode="N" horiz-adv-x="663" 
d="M158 658c39 -2 60 -4 99 -4c37 0 56 2 94 4c20 -78 109 -291 192 -455c6 17 8 25 11 41l51 269c7 35 13 56 13 92c0 18 -59 26 -70 26c-2 0 -2 4 -2 7c0 7 3 17 7 20c41 -2 64 -5 105 -5c43 0 71 3 109 5c0 -8 0 -27 -6 -27c-7 0 -73 -11 -78 -22
c-11 -26 -18 -56 -25 -93l-75 -380c-11 -54 -18 -109 -24 -140c-3 -3 -7 -4 -10 -4c-9 0 -19 10 -26 23c-4 8 -150 345 -246 566l-89 -440c-7 -34 -10 -60 -10 -89c0 -19 65 -28 65 -28c2 0 2 -2 2 -5c0 -7 -3 -18 -5 -22c-37 2 -63 5 -104 5c-43 0 -67 -3 -110 -5
c-1 1 -2 5 -2 8c0 8 3 19 7 19c11 0 71 12 77 24c14 27 19 58 27 96l77 372c7 34 9 76 9 90c0 18 -57 25 -68 25c-2 0 -2 3 -2 7c0 7 3 17 7 20z" />
    <glyph glyph-name="O" unicode="O" horiz-adv-x="624" 
d="M409 625c-150 0 -258 -186 -258 -358c0 -130 58 -234 171 -234c144 0 256 189 256 362c0 127 -57 230 -169 230zM432 667c136 0 238 -116 238 -258c0 -219 -175 -419 -374 -419c-145 0 -236 118 -236 269c0 215 190 408 372 408z" />
    <glyph glyph-name="P" unicode="P" horiz-adv-x="505" 
d="M395 658c69 0 170 -58 170 -154c0 -119 -118 -209 -226 -209c-42 0 -62 6 -70 9c-2 7 -2 7 -2 10c0 4 2 12 6 16c7 -1 8 -2 24 -2c80 0 183 61 183 188c0 80 -48 105 -108 105c-67 0 -78 -7 -80 -20l-93 -473c-6 -30 -9 -50 -9 -79c0 -19 65 -25 65 -25c1 0 2 -6 2 -8
c0 -6 -4 -17 -6 -19c-37 2 -62 5 -102 5c-48 0 -75 -3 -123 -5c-1 1 -2 5 -2 8c0 8 3 19 7 19c11 0 58 10 64 22c14 28 18 58 26 96l82 412c4 20 5 38 5 52c0 18 -42 25 -53 25c-2 0 -2 3 -2 7c0 7 3 17 7 20c0 0 43 -3 104 -3c55 0 76 3 131 3z" />
    <glyph glyph-name="Q" unicode="Q" horiz-adv-x="608" 
d="M398 667c140 0 241 -109 241 -267c0 -179 -136 -325 -284 -394c-2 -1 -2 -1 -2 -2s1 -3 2 -4c74 -68 187 -141 347 -141c92 0 185 52 195 60c4 -4 11 -11 11 -17c0 -4 0 -7 -1 -10c-63 -37 -158 -92 -270 -92c-126 0 -262 97 -347 177c-1 1 -3 1 -5 1
c-14 0 -55 -17 -136 -17c-48 0 -103 23 -103 72c0 46 41 92 105 92c101 0 156 -88 167 -88c13 0 231 140 231 360c0 101 -45 228 -170 228c-131 0 -203 -106 -203 -224c0 -75 19 -158 108 -158c40 0 69 39 69 80c0 39 -37 53 -37 92c0 28 24 49 52 49c11 0 18 -2 27 -8
c8 -14 23 -57 23 -95c0 -82 -60 -154 -142 -154c-96 0 -174 80 -174 176c0 160 136 284 296 284zM254 9c0 1 -66 69 -117 69c-31 0 -52 -12 -52 -40c0 -33 31 -46 64 -46c54 0 105 14 105 17z" />
    <glyph glyph-name="R" unicode="R" horiz-adv-x="593" 
d="M389 658c69 0 179 -29 179 -136c0 -111 -123 -178 -161 -195c-5 -2 -7 -7 -5 -12c27 -91 73 -196 102 -241c32 -50 61 -45 86 -45c2 -5 6 -21 1 -28c-10 -2 -36 -5 -58 -5c-91 0 -136 82 -207 301c-4 12 -25 14 -44 14c-39 0 -48 0 -52 -17l-29 -155
c-7 -35 -11 -61 -11 -90c0 -19 54 -25 54 -25c1 0 2 -2 2 -4c0 -6 -4 -19 -6 -23c-37 2 -63 5 -104 5c-43 0 -67 -3 -110 -5c-1 1 -2 5 -2 8c0 8 3 19 7 19c11 0 58 9 64 22c12 28 18 58 26 96l82 414c4 21 5 36 5 50c0 18 -42 25 -53 25c-2 0 -2 3 -2 7c0 7 3 17 7 20
c0 0 43 -3 104 -3c56 0 70 3 125 3zM373 621c-67 0 -77 -2 -80 -19l-48 -233v-2c0 -12 29 -15 47 -15c88 0 191 54 191 175c0 66 -40 94 -110 94z" />
    <glyph glyph-name="S" unicode="S" horiz-adv-x="435" 
d="M355 172c0 111 -233 152 -233 286c0 122 102 208 224 208c48 0 82 -20 129 -24c-19 -150 -15 -150 -22 -150c-4 0 -16 1 -23 6c-3 2 -2 7 -2 12c0 64 -49 113 -101 113c-78 0 -127 -54 -127 -121c0 -35 16 -66 49 -92c88 -69 192 -113 192 -211c0 -80 -79 -205 -233 -205
c-61 0 -111 13 -159 24c2 32 4 49 4 81c0 30 -2 67 -2 77c0 5 11 7 19 7s14 -4 19 -8c0 -46 16 -140 128 -140c63 0 138 45 138 137z" />
    <glyph glyph-name="T" unicode="T" horiz-adv-x="601" 
d="M285 142l69 355c7 37 13 66 13 97c0 10 4 21 -99 21c-72 0 -89 -16 -122 -89c-2 -4 -5 -5 -10 -5c-8 0 -17 4 -20 7l44 143c14 -4 50 -11 63 -11c83 -1 127 -6 202 -6s123 5 206 6c13 0 50 7 66 11l-10 -143c-4 -3 -15 -7 -23 -7c-5 0 -9 1 -9 5c0 76 -27 89 -86 89
s-101 -5 -106 -15c-13 -28 -20 -60 -28 -100l-70 -361c-7 -35 -11 -61 -11 -90c0 -19 54 -25 54 -25c1 0 2 -2 2 -4c0 -6 -4 -19 -6 -23c-37 2 -63 5 -104 5c-43 0 -67 -3 -110 -5c-1 1 -2 5 -2 8c0 8 3 19 7 19c11 0 58 9 64 22c12 28 19 58 26 96z" />
    <glyph glyph-name="U" unicode="U" horiz-adv-x="631" 
d="M173 512c7 36 11 56 11 92c0 17 -45 27 -56 27c-1 0 -2 2 -2 5c0 7 4 18 8 22c42 -2 65 -6 108 -6c41 0 68 4 106 6v-3c0 -8 -3 -24 -7 -24c-7 0 -57 -12 -62 -23c-12 -27 -20 -64 -26 -93l-41 -217c-4 -22 -8 -59 -8 -85c0 -99 42 -164 131 -164c90 0 173 53 205 225
l44 238c6 35 12 59 12 90c0 19 -61 29 -75 29c-2 0 -2 2 -2 6c0 7 3 18 7 21c42 -2 66 -6 108 -6s69 4 107 6c0 -9 -2 -27 -7 -27c-7 0 -68 -13 -75 -23c-8 -10 -19 -61 -27 -98l-45 -234c-43 -221 -129 -276 -283 -276c-114 0 -184 71 -184 206c0 21 4 57 14 106z" />
    <glyph glyph-name="V" unicode="V" horiz-adv-x="640" 
d="M127 658c41 -2 64 -4 105 -4c43 0 71 2 109 4v-3c0 -8 -3 -24 -7 -24c-48 0 -60 -11 -60 -37c0 -38 51 -310 75 -442c0 -2 2 -3 4 -3c3 0 9 2 12 8l230 397c10 17 12 33 12 50c0 13 -30 27 -54 27c-2 0 -2 2 -2 5c0 7 3 19 7 22c36 -2 57 -4 93 -4c39 0 61 2 99 4v-6
c-1 -10 -4 -21 -8 -21c-20 0 -60 -14 -82 -52l-326 -560c-12 -21 -23 -33 -38 -33c-4 0 -7 3 -9 6l-99 559c-5 26 -11 45 -15 55c-7 16 -40 25 -51 25c-2 0 -2 2 -2 5c0 7 3 19 7 22z" />
    <glyph glyph-name="W" unicode="W" horiz-adv-x="973" 
d="M127 658c42 -2 66 -6 109 -6c41 0 59 4 97 6v-3c0 -8 -3 -24 -7 -24c-34 0 -59 -19 -59 -37c0 -8 5 -29 7 -37l125 -438c1 -2 2 -3 4 -3c4 0 9 4 11 8l105 170c1 2 5 7 5 10c0 5 -68 250 -95 302c-8 15 -31 25 -42 25c-2 0 -2 2 -2 5c0 7 4 19 8 22c42 -2 65 -6 108 -6
c41 0 60 4 98 6v-3c0 -8 -4 -24 -8 -24c-34 0 -58 -19 -58 -37c0 -8 4 -29 6 -37l46 -160l84 137c17 27 25 44 25 59c0 30 -35 38 -41 38c-2 0 -2 2 -2 5c0 7 3 19 7 22c29 -2 43 -6 73 -6c47 0 84 4 122 6c0 -14 -3 -27 -7 -27c-24 0 -69 -23 -78 -33
c-16 -18 -46 -63 -70 -100l-96 -147c-1 -2 -2 -3 -2 -5s1 -5 2 -7l59 -222c1 -2 2 -3 4 -3c4 0 9 5 11 8l233 412c16 28 25 44 25 59c0 30 -35 38 -41 38c-2 0 -2 2 -2 5c0 7 3 19 7 22c29 -2 43 -6 73 -6c47 0 84 4 122 6c0 -14 -3 -27 -7 -27c-24 0 -69 -23 -78 -33
c-16 -18 -48 -62 -70 -100l-281 -479c-15 -26 -35 -32 -43 -32c-4 0 -7 2 -8 5l-69 256l-147 -229c-12 -18 -25 -32 -42 -32c-2 0 -6 2 -8 5l-142 518c-10 37 -20 67 -35 96c-8 15 -30 25 -41 25c-2 0 -2 2 -2 5c0 7 3 19 7 22z" />
    <glyph glyph-name="X" unicode="X" horiz-adv-x="656" 
d="M289 652c46 0 85 4 123 6v-4c0 -8 -2 -23 -6 -23c-9 0 -64 -8 -64 -40c0 -7 1 -14 5 -24l73 -166c1 -2 2 -2 3 -2c2 0 5 2 7 4c0 0 163 173 163 197c0 18 -33 31 -58 31c-2 0 -2 2 -2 5c0 7 3 19 7 22c34 -2 77 -6 111 -6c48 0 73 4 111 6v-3c0 -8 -3 -24 -7 -24
c-7 0 -78 -11 -96 -31l-215 -236c-3 -4 -4 -7 -4 -9c0 -1 105 -255 124 -286c22 -37 83 -45 90 -45c2 0 2 -2 2 -5c0 -7 -1 -18 -3 -22c-37 2 -73 5 -111 5c-52 0 -81 -3 -134 -5c-1 1 -2 5 -2 8c0 8 3 19 7 19c10 0 55 11 55 32c0 2 0 4 -1 6l-89 225c-1 3 -3 4 -4 4
s-2 0 -5 -3c0 0 -193 -217 -193 -234c0 -30 44 -30 55 -30c2 0 4 -3 4 -9c0 -7 -2 -15 -5 -18c-34 2 -69 1 -103 1c-48 0 -78 1 -116 -1c-1 1 -1 3 -1 4c0 8 1 23 5 23c7 0 66 3 90 30l245 271c2 2 3 5 3 8c0 2 0 4 -1 7l-74 180c-22 58 -30 67 -55 89c-13 11 -45 22 -56 22
c-2 0 -2 2 -2 5c0 7 3 19 7 22c45 -2 71 -6 117 -6z" />
    <glyph glyph-name="Y" unicode="Y" horiz-adv-x="593" 
d="M244 652c46 0 86 4 124 6v-5c0 -8 -3 -22 -7 -22c-9 0 -63 -9 -63 -42c0 -6 1 -13 4 -22l65 -208c1 -2 2 -3 3 -3c2 0 6 3 7 5c0 0 171 214 171 239c0 18 -37 31 -62 31c-2 0 -2 2 -2 6c0 7 3 18 7 21c34 -2 58 -6 92 -6c48 0 82 4 120 6c0 -10 -2 -27 -7 -27
c-7 0 -62 -12 -81 -31c-13 -13 -225 -285 -231 -315l-28 -146c-7 -35 -11 -61 -11 -90c0 -19 54 -25 54 -25c1 0 2 -1 2 -4c0 -7 -4 -19 -6 -23c-37 2 -63 5 -104 5c-43 0 -68 -3 -111 -5c-1 1 -1 4 -1 7c0 8 3 20 7 20c11 0 57 10 64 22c11 19 18 52 25 90l23 125
c1 8 3 16 3 22c0 3 0 5 -1 7l-83 255c-11 37 -23 52 -39 64c-14 10 -45 22 -56 22c-2 0 -2 2 -2 5c0 7 3 19 7 22c45 -2 71 -6 117 -6z" />
    <glyph glyph-name="Z" unicode="Z" horiz-adv-x="546" 
d="M323 656c46 -1 81 -1 108 -1c95 0 98 4 191 11c3 -1 4 -10 4 -20c0 -5 0 -10 -1 -13c-3 -8 -456 -557 -456 -557c-6 -7 -8 -13 -8 -17c0 -6 4 -8 10 -8h210c100 0 122 70 136 101c2 6 19 8 27 8c7 0 12 -3 14 -6c-32 -78 -42 -107 -57 -154h-461c-3 5 -4 11 -4 17
c0 10 3 20 8 26l466 565h-43c-56 0 -155 -1 -158 -1c-92 -1 -114 -40 -152 -123c-2 -3 -5 -4 -10 -4c-10 0 -24 6 -27 9c18 50 36 111 56 176c14 -4 134 -9 147 -9z" />
    <glyph glyph-name="bracketleft" unicode="[" horiz-adv-x="307" 
d="M168 740c75 0 135 9 150 9c2 0 5 0 5 -6c0 -22 -23 -36 -24 -37c0 0 -46 -11 -96 -11c-6 0 -8 -8 -8 -8l-144 -736s-1 -8 5 -8c50 0 90 -17 90 -17c2 -2 12 -3 8 -28c-2 -11 -8 -12 -8 -12s-66 12 -142 12c-12 0 -13 10 -13 17v6l154 796c0 1 6 23 23 23z" />
    <glyph glyph-name="backslash" unicode="\" horiz-adv-x="212" 
d="M26 761c34 0 40 -12 41 -22l126 -726c1 -3 1 -5 1 -8c0 -21 -13 -42 -29 -44c-6 0 -23 2 -23 2l-136 792c4 2 6 6 20 6z" />
    <glyph glyph-name="bracketright" unicode="]" horiz-adv-x="299" 
d="M150 749c2 0 71 -9 148 -9c11 0 13 -8 13 -15c0 -4 0 -5 -1 -8l-154 -796c0 -1 -5 -23 -22 -23c-76 0 -147 -12 -147 -12s-4 3 -4 9c0 15 15 26 20 31c23 8 56 17 96 17c6 0 9 8 9 8l143 736s1 8 -5 8c-50 0 -92 11 -92 11c-2 2 -12 7 -12 22c0 9 3 21 8 21z" />
    <glyph glyph-name="asciicircum" unicode="^" horiz-adv-x="303" 
d="M13 499c9 15 91 66 161 178c6 10 5 13 12 13c22 0 10 -20 51 -102c15 -30 58 -83 59 -88c-2 -8 -10 -25 -17 -25c-20 0 -89 89 -107 122c-49 -57 -140 -122 -151 -122c-8 0 -8 16 -8 24z" />
    <glyph glyph-name="underscore" unicode="_" horiz-adv-x="485" 
d="M9 -37c0 5 16 50 24 50h414c3 0 6 -1 6 -4c0 -4 -8 -24 -18 -46c-3 -6 -6 -6 -6 -6h-415s-5 0 -5 6z" />
    <glyph glyph-name="grave" unicode="`" horiz-adv-x="162" 
d="M20 659c0 6 6 28 42 28c14 0 27 -4 30 -9c26 -42 60 -136 60 -136c0 -7 -7 -15 -14 -15c-9 0 -118 91 -118 132z" />
    <glyph glyph-name="a" unicode="a" horiz-adv-x="445" 
d="M359 435c35 0 54 -6 73 -13l-61 -316c-1 -4 -3 -20 -3 -25c0 -9 0 -25 10 -25c21 0 63 52 66 55c3 0 13 -17 13 -23c-11 -19 -79 -94 -126 -94c-21 0 -34 22 -34 52c0 8 3 32 7 53c4 19 4 19 5 26c-21 -36 -83 -130 -141 -130c-62 0 -95 65 -95 135
c0 146 149 305 286 305zM317 389c-77 0 -170 -123 -170 -238c0 -62 16 -98 51 -98c50 0 121 125 140 221l20 102c-9 10 -28 13 -41 13z" />
    <glyph glyph-name="b" unicode="b" horiz-adv-x="394" 
d="M172 612c0 19 -45 19 -61 19c-2 0 -3 4 -3 6c0 8 4 16 8 20c55 5 104 20 126 28c5 -3 6 -13 6 -19c0 -8 -8 -50 -13 -75l-59 -288c70 117 136 132 153 132c63 0 89 -68 89 -131c0 -180 -135 -310 -242 -310c-50 0 -115 44 -96 143l83 422c4 18 9 42 9 53zM202 35
c79 0 142 136 142 245c0 37 -1 100 -44 100c-44 0 -133 -136 -150 -224c-14 -72 4 -121 52 -121z" />
    <glyph glyph-name="c" unicode="c" horiz-adv-x="326" 
d="M277 435c32 0 62 -13 87 -34c1 -5 3 -14 3 -20c0 -24 -12 -43 -35 -43c-32 0 -33 56 -67 56c-51 0 -136 -98 -136 -232c0 -35 3 -106 66 -106c47 0 90 52 93 55c3 0 13 -17 13 -23c-11 -19 -76 -94 -139 -94c-71 0 -107 59 -107 152c0 127 119 289 222 289z" />
    <glyph glyph-name="d" unicode="d" horiz-adv-x="463" 
d="M357 435c25 0 7 0 13 0l28 149c2 9 3 26 3 28c0 19 -45 19 -61 19c-2 0 -3 4 -3 6c0 8 4 16 8 20c55 5 107 20 129 28c5 -3 6 -13 6 -19c0 -8 -10 -50 -15 -75l-94 -485c-1 -4 -3 -20 -3 -25c0 -9 0 -25 10 -25c21 0 63 52 66 55c3 0 13 -17 13 -23
c-11 -19 -79 -94 -126 -94c-21 0 -34 22 -34 52c0 8 3 32 7 53c4 19 5 20 6 27c-16 -28 -81 -131 -141 -131c-64 0 -96 65 -96 135c0 145 151 305 284 305zM350 341c5 23 -4 48 -31 48c-81 0 -172 -124 -172 -239c0 -55 14 -97 51 -97c51 0 121 126 140 223z" />
    <glyph glyph-name="e" unicode="e" horiz-adv-x="332" 
d="M285 435c68 0 87 -45 87 -75c0 -96 -168 -177 -230 -177c-4 0 -4 -30 -4 -35c0 -61 26 -92 65 -92c47 0 90 52 93 55c3 0 13 -17 13 -23c-11 -19 -76 -94 -139 -94c-71 0 -107 59 -107 152c0 127 119 289 222 289zM275 394c-70 0 -130 -135 -130 -172c0 -2 1 -4 4 -4
c39 0 151 72 151 146c0 12 -6 30 -25 30z" />
    <glyph glyph-name="f" unicode="f" horiz-adv-x="304" 
d="M403 699c54 0 74 -19 82 -34c0 -29 -7 -65 -36 -65c-33 0 -45 61 -82 61c-39 0 -96 -82 -124 -248v-2c0 -2 1 -4 3 -4h115c4 0 5 -7 5 -12c0 -14 -6 -26 -11 -34h-117c-3 0 -5 0 -6 -8l-55 -299c-34 -196 -129 -285 -216 -285c-51 0 -75 24 -81 41c-1 30 17 59 41 59
c27 0 32 -61 74 -61c55 0 97 150 107 207l60 339v2c0 3 -1 5 -3 5h-65c-1 0 -2 1 -2 3c0 10 25 43 48 43h29c3 0 5 5 6 9c27 166 128 283 228 283z" />
    <glyph glyph-name="g" unicode="g" horiz-adv-x="451" 
d="M268 398c-61 0 -98 -82 -98 -151c0 -49 19 -91 61 -91c58 0 97 76 97 138c0 49 -21 104 -60 104zM284 436c61 0 69 -27 136 -27h43c6 0 10 -3 10 -11c0 -12 -5 -21 -10 -28h-61c-4 0 -6 -3 -6 -6c1 -6 6 -25 6 -52c0 -106 -72 -155 -92 -167c-35 -21 -105 -45 -105 -68
c0 -27 228 -57 228 -155c0 -95 -92 -155 -253 -155c-69 0 -138 36 -138 98c0 68 76 121 127 145l-32 13c-13 6 -25 13 -25 31c0 25 81 65 95 68c-32 0 -112 31 -112 109c0 116 96 205 189 205zM211 -7c-43 -13 -95 -35 -95 -103c0 -60 61 -80 111 -80c80 0 141 30 141 72
c0 44 -80 80 -157 111z" />
    <glyph glyph-name="h" unicode="h" horiz-adv-x="461" 
d="M381 435c39 0 50 -28 50 -66c0 -37 -5 -68 -14 -109l-33 -154c-1 -4 -3 -20 -3 -25c0 -9 0 -25 10 -25c21 0 63 52 66 55c3 0 13 -17 13 -23c-11 -19 -79 -94 -126 -94c-21 0 -34 22 -34 52c0 8 3 32 7 53l35 165c2 9 7 43 7 54c0 23 -2 43 -19 43
c-36 0 -163 -133 -192 -283l-17 -78c-10 -3 -21 -4 -31 -4s-22 1 -34 4l108 559c4 18 9 42 9 53c0 19 -45 19 -61 19c-2 0 -3 4 -3 6c0 8 4 16 8 20c55 5 104 20 126 28c5 -3 6 -13 6 -19c0 -8 -8 -50 -13 -75l-51 -261l-18 -92c13 25 138 197 204 197z" />
    <glyph glyph-name="i" unicode="i" horiz-adv-x="274" 
d="M192 106c-1 -4 -3 -20 -3 -25c0 -9 0 -25 10 -25c21 0 63 52 66 55c3 0 13 -17 13 -23c-11 -19 -79 -94 -126 -94c-21 0 -34 22 -34 52c0 8 3 32 7 53l41 209c1 7 5 35 5 40c0 9 0 25 -10 25c-16 0 -52 -44 -55 -47c-3 0 -13 17 -13 23c11 19 76 86 115 86
c21 0 34 -22 34 -52c0 -8 -2 -32 -6 -53zM237 646c21 0 36 -19 36 -40c0 -31 -23 -60 -54 -60c-22 0 -34 21 -34 43c0 30 22 57 52 57z" />
    <glyph glyph-name="j" unicode="j" horiz-adv-x="290" 
d="M257 330l-55 -285c-7 -36 -24 -112 -66 -169c-41 -56 -104 -97 -139 -111c-4 3 -9 13 -9 20c67 38 120 126 142 237l57 286c1 7 5 35 5 40c0 9 0 25 -10 25c-16 0 -52 -44 -55 -47c-3 0 -13 17 -13 23c11 19 76 86 115 86c21 0 34 -22 34 -52c0 -8 -2 -32 -6 -53z
M258 646c21 0 36 -19 36 -40c0 -31 -23 -60 -54 -60c-22 0 -34 21 -34 43c0 30 22 57 52 57z" />
    <glyph glyph-name="k" unicode="k" horiz-adv-x="485" 
d="M189 191l-37 -191c-11 -3 -22 -5 -33 -5s-21 2 -33 5l109 559c4 18 9 42 9 53c0 19 -45 19 -61 19c-2 0 -3 4 -3 6c0 8 4 16 8 20c55 5 104 20 126 28c5 -3 6 -13 6 -19c0 -8 -8 -50 -13 -75l-52 -264c-1 -4 0 -6 2 -6c5 0 81 114 167 114c39 0 75 -29 75 -68
c0 -91 -94 -145 -205 -164c88 -132 120 -148 145 -148c28 0 52 31 59 44c4 0 16 -15 16 -20c-4 -15 -54 -83 -98 -83c-79 0 -144 123 -187 195zM207 230c0 0 181 17 181 115c0 29 -12 43 -40 43c-47 0 -143 -132 -143 -156c0 -1 0 -2 2 -2z" />
    <glyph glyph-name="l" unicode="l" horiz-adv-x="236" 
d="M93 99l94 485c2 9 3 26 3 28c0 19 -45 19 -61 19c-2 0 -3 4 -3 6c0 8 4 16 8 20c55 5 106 20 128 28c5 -3 6 -13 6 -19c0 -8 -8 -50 -13 -75l-95 -485c-1 -4 -3 -20 -3 -25c0 -9 0 -25 10 -25c21 0 63 52 66 55c3 0 13 -17 13 -23c-11 -19 -79 -94 -126 -94
c-21 0 -34 22 -34 52c0 8 3 32 7 53z" />
    <glyph glyph-name="m" unicode="m" horiz-adv-x="716" 
d="M687 369c0 -37 -5 -68 -14 -109l-33 -154c-1 -4 -3 -20 -3 -25c0 -9 0 -25 10 -25c21 0 63 52 66 55c3 0 13 -17 13 -23c-11 -19 -79 -94 -126 -94c-21 0 -34 22 -34 52c0 8 3 32 7 53l35 165c2 9 7 43 7 54c0 26 -1 43 -19 43c-40 0 -159 -133 -184 -266l-18 -95
c-14 -1 -21 -3 -35 -3c-13 0 -20 2 -32 3l56 284c3 16 4 29 4 38c0 26 -7 39 -20 39c-45 0 -159 -159 -182 -273l-18 -88c-13 -2 -21 -4 -34 -4s-20 2 -33 4l60 308c1 7 5 35 5 40c0 9 0 25 -10 25c-16 0 -52 -44 -55 -47c-3 0 -13 17 -13 23c11 19 76 86 115 86
c21 0 34 -22 34 -52c0 -8 -2 -33 -6 -53l-18 -93c36 63 131 198 183 198c58 0 62 -51 62 -95c0 -31 -11 -72 -14 -88v-1s0 -1 1 -1s2 0 2 1c36 63 132 184 184 184c46 0 57 -25 57 -66z" />
    <glyph glyph-name="n" unicode="n" horiz-adv-x="492" 
d="M210 238c13 25 138 197 204 197c39 0 50 -28 50 -66c0 -37 -5 -68 -14 -109l-33 -154c-1 -4 -3 -20 -3 -25c0 -9 0 -25 10 -25c21 0 63 52 66 55c3 0 13 -17 13 -23c-11 -19 -79 -94 -126 -94c-21 0 -34 22 -34 52c0 8 3 32 7 53l35 165c2 9 7 43 7 54c0 23 -2 43 -19 43
c-36 0 -163 -133 -192 -283l-17 -78c-10 -3 -21 -4 -31 -4s-22 1 -34 4l59 308c1 7 5 35 5 40c0 9 0 25 -10 25c-16 0 -52 -44 -55 -47c-3 0 -13 17 -13 23c11 19 76 86 115 86c21 0 34 -22 34 -52c0 -8 -2 -33 -6 -53z" />
    <glyph glyph-name="o" unicode="o" horiz-adv-x="398" 
d="M153 158c0 -80 29 -122 65 -122c70 0 127 137 127 237c0 80 -24 121 -60 121c-70 0 -132 -136 -132 -236zM77 145c0 140 120 290 220 290c80 0 124 -59 124 -154c0 -140 -121 -286 -221 -286c-80 0 -123 55 -123 150z" />
    <glyph glyph-name="p" unicode="p" horiz-adv-x="440" 
d="M238 430c-4 -19 -10 -49 -11 -56c27 25 66 61 126 61c64 0 96 -65 96 -135c0 -145 -161 -304 -255 -304c-17 0 -29 2 -40 8l-28 -149c-2 -9 -3 -18 -3 -28c0 -5 4 -20 14 -23c17 -4 44 -3 47 -3c1 0 2 -3 2 -6c0 -7 -3 -19 -5 -22c-13 0 -24 1 -35 1
c-51 0 -85 -2 -143 -9c-2 1 -3 6 -3 8c0 7 2 18 4 21c18 0 31 5 40 16c7 9 12 20 16 43l79 408l-48 -48c-4 5 -6 15 -6 20c0 4 2 6 3 7l59 63l26 130c11 3 22 4 33 4s22 -2 32 -7zM174 103c-4 -23 -2 -61 39 -61c77 0 162 123 162 238c0 55 -12 97 -62 97
c-33 0 -69 -15 -96 -53z" />
    <glyph glyph-name="q" unicode="q" horiz-adv-x="415" 
d="M323 389c-89 0 -170 -126 -170 -230c0 -66 15 -106 52 -106c50 0 128 125 147 221l20 102c-9 10 -36 13 -49 13zM340 -147c-1 -8 -2 -15 -2 -21c0 -14 2 -30 46 -30c1 0 2 -2 2 -6c0 -8 -3 -21 -5 -24c-14 0 -27 1 -40 1c-58 0 -108 -4 -145 -8c0 2 -1 9 -1 12
c0 7 1 18 5 18s61 0 72 58l51 272c-21 -36 -90 -130 -148 -130c-62 0 -96 65 -96 135c0 146 150 305 287 305c35 0 61 -6 80 -13l-61 -316c-1 -4 -45 -253 -45 -253z" />
    <glyph glyph-name="r" unicode="r" horiz-adv-x="372" 
d="M219 246c13 25 109 189 158 189c26 0 40 -9 55 -32c0 -30 -3 -67 -37 -67c-18 0 -19 25 -42 25c-36 0 -138 -140 -159 -256l-19 -105c-11 -2 -22 -3 -33 -3c-13 0 -25 1 -37 3l60 308c1 7 5 35 5 40c0 9 0 25 -10 25c-16 0 -52 -44 -55 -47c-3 0 -13 17 -13 23
c11 19 76 86 115 86c21 0 34 -22 34 -52c0 -8 -2 -33 -6 -53z" />
    <glyph glyph-name="s" unicode="s" horiz-adv-x="320" 
d="M261 438c40 0 69 -14 90 -38c3 -7 5 -14 5 -21c0 -23 -14 -44 -34 -44c-35 0 -33 59 -96 59c-30 0 -45 -25 -45 -46c0 -80 124 -131 124 -231c0 -74 -59 -123 -143 -123c-40 0 -69 14 -90 38c-3 5 -5 13 -5 19c0 23 14 46 34 46c35 0 33 -59 96 -59c31 0 49 25 49 46
c0 80 -124 131 -124 231c0 51 55 123 139 123z" />
    <glyph glyph-name="t" unicode="t" horiz-adv-x="262" 
d="M111 99l54 279h-71c-3 0 -3 9 -3 11c0 16 10 28 12 31h70l24 122c2 8 31 10 49 10c6 0 12 0 18 -1l-25 -131h91c3 0 5 -9 5 -13c0 -11 -4 -20 -9 -29h-95l-53 -272c-1 -4 -3 -20 -3 -25c0 -9 0 -25 10 -25c21 0 63 52 66 55c3 0 13 -17 13 -23c-11 -19 -79 -94 -126 -94
c-21 0 -34 22 -34 52c0 8 3 32 7 53z" />
    <glyph glyph-name="u" unicode="u" horiz-adv-x="472" 
d="M399 106c-1 -4 -3 -20 -3 -25c0 -9 0 -25 10 -25c21 0 63 52 66 55c3 0 13 -17 13 -23c-11 -19 -79 -94 -126 -94c-21 0 -34 22 -34 52c0 8 3 32 7 53l18 92c-13 -25 -130 -197 -196 -197c-39 0 -50 28 -50 66c0 37 5 68 14 109l30 139c1 7 5 35 5 40c0 9 0 25 -10 25
c-16 0 -52 -44 -55 -47c-3 0 -13 17 -13 23c11 19 76 86 115 86c21 0 34 -22 34 -52c0 -8 -1 -32 -6 -53l-35 -165c-2 -9 -7 -43 -7 -54c0 -23 2 -43 19 -43c36 0 155 133 184 283l17 78c10 3 21 4 31 4s22 -1 34 -4z" />
    <glyph glyph-name="v" unicode="v" horiz-adv-x="416" 
d="M184 114c0 -37 9 -52 41 -52c63 0 169 164 169 247c0 39 -29 54 -29 81c0 24 18 45 41 45c18 0 24 -3 32 -8c6 -11 14 -35 14 -58c0 -177 -178 -369 -265 -369c-47 0 -74 38 -74 88c0 12 2 36 4 44l34 176c2 7 6 35 6 40c0 9 0 25 -10 25c-16 0 -52 -44 -55 -47
c-3 0 -13 17 -13 23c11 19 76 86 115 86c21 0 34 -22 34 -52c0 -8 -2 -32 -6 -53l-30 -153c-1 -6 -8 -51 -8 -63z" />
    <glyph glyph-name="w" unicode="w" horiz-adv-x="632" 
d="M444 388c0 -52 -19 -117 -41 -177c-5 -36 -7 -59 -7 -64c0 -64 9 -85 41 -85c63 0 156 164 156 247c0 39 -29 54 -29 81c0 24 18 45 41 45c18 0 24 -3 32 -8c6 -11 14 -35 14 -58c0 -177 -165 -369 -252 -369c-47 0 -74 35 -74 91c-48 -55 -100 -91 -138 -91
c-47 0 -74 38 -74 88c0 12 2 36 4 44l34 176c2 7 6 35 6 40c0 9 0 25 -10 25c-16 0 -52 -44 -55 -47c-3 0 -13 17 -13 23c11 19 76 86 115 86c21 0 34 -22 34 -52c0 -8 -2 -32 -6 -53l-30 -153c-1 -6 -8 -51 -8 -63c0 -37 9 -52 41 -52c31 0 74 41 108 92
c24 198 29 281 73 281c18 0 38 -7 38 -47z" />
    <glyph glyph-name="x" unicode="x" horiz-adv-x="476" 
d="M208 435c31 0 54 -41 68 -87l21 -71l59 101c23 40 51 57 84 57c29 0 46 -10 58 -20c4 -8 8 -18 8 -26c0 -21 -19 -36 -32 -36c-26 0 -33 31 -60 31c-7 0 -19 -12 -27 -26l-75 -128l43 -141c6 -21 17 -34 27 -34c23 0 49 30 56 44c5 0 16 -15 16 -20
c-3 -15 -55 -84 -102 -84c-31 0 -55 43 -68 87l-23 78l-63 -109c-23 -40 -51 -57 -84 -57c-29 0 -46 10 -58 20c-5 9 -8 18 -8 26c0 21 19 36 32 36c26 0 33 -31 60 -31c7 0 19 12 27 26l79 136l-41 134c-7 23 -17 34 -27 34c-23 0 -49 -30 -56 -44c-5 0 -16 15 -16 20
c3 15 55 84 102 84z" />
    <glyph glyph-name="y" unicode="y" horiz-adv-x="460" 
d="M206 435c86 0 87 -346 87 -407c36 44 117 166 117 257c0 61 -14 86 -25 107c8 26 26 43 50 43c42 0 44 -57 44 -79c0 -234 -321 -589 -456 -589c-36 0 -60 19 -60 41c0 17 8 36 23 44c15 -9 45 -13 67 -13c62 0 111 41 144 89c23 34 23 91 23 134c0 114 -11 311 -60 311
c-14 0 -46 -35 -55 -47c-3 0 -13 17 -13 23c6 15 77 86 114 86z" />
    <glyph glyph-name="z" unicode="z" horiz-adv-x="404" 
d="M205 435c28 0 92 -25 151 -25c27 0 39 25 66 25c10 0 12 -14 12 -25c0 -14 -299 -329 -299 -331s26 18 41 18c51 0 93 -36 126 -36c28 0 57 59 63 68c6 7 13 -11 14 -19c-6 -20 -54 -110 -100 -110c-28 0 -92 26 -151 26c-27 0 -39 -26 -66 -26c-10 0 -12 15 -12 26
c0 15 298 329 298 331c0 1 -25 -19 -40 -19c-51 0 -93 36 -126 36c-28 0 -56 -59 -62 -68c-7 -8 -13 11 -14 20c6 20 53 109 99 109z" />
    <glyph glyph-name="braceleft" unicode="{" horiz-adv-x="275" 
d="M3 12c0 108 82 153 82 221c0 40 -39 47 -72 59v6c0 9 2 22 8 31c52 14 100 29 100 96c0 39 -17 81 -17 124c0 73 63 201 184 201c2 0 3 -1 3 -4c0 -8 -8 -24 -15 -25c-14 -1 -117 -31 -117 -144c0 -39 11 -70 11 -113c0 -102 -62 -155 -99 -156c29 -1 59 -35 59 -86
c0 -97 -86 -140 -86 -222c0 -55 47 -94 73 -96c4 -1 7 -8 7 -16c0 -7 -2 -13 -6 -13c-68 0 -115 56 -115 137z" />
    <glyph glyph-name="bar" unicode="|" horiz-adv-x="203" 
d="M158 757c10 10 26 16 44 16c7 0 16 -3 15 -7l-168 -872c-7 -8 -27 -17 -46 -17c-6 0 -15 3 -14 8z" />
    <glyph glyph-name="braceright" unicode="}" horiz-adv-x="268" 
d="M275 623c0 -113 -87 -163 -87 -233c0 -40 36 -51 71 -61c1 -2 1 -5 1 -8c0 -10 -4 -23 -7 -29c-39 -12 -101 -20 -101 -93c0 -38 17 -78 17 -120c0 -83 -79 -204 -183 -204c-2 0 -3 2 -3 4c0 8 9 24 16 25c24 2 117 49 117 143c0 42 -20 67 -20 114c0 90 65 146 104 147
c-28 1 -54 34 -54 83c0 95 84 163 84 240c0 54 -47 88 -73 90c-4 1 -7 8 -7 16c0 7 2 13 6 13c67 0 119 -44 119 -127z" />
    <glyph glyph-name="asciitilde" unicode="~" horiz-adv-x="473" 
d="M157 354c88 0 120 -53 208 -53c36 0 62 21 93 44c2 -2 6 -4 6 -10c0 -30 -64 -85 -135 -85c-88 0 -123 53 -211 53c-36 0 -62 -21 -93 -44c-2 2 -6 4 -6 10c0 39 83 85 138 85z" />
    <glyph glyph-name="uni00A0" unicode="&#xa0;" horiz-adv-x="103" 
 />
    <glyph glyph-name="exclamdown" unicode="&#xa1;" horiz-adv-x="197" 
d="M21 -269c-25 0 -37 21 -37 46s5 30 119 479c3 12 10 25 16 22c13 -7 17 -11 17 -21c0 0 -60 -456 -61 -463c-6 -31 -25 -63 -54 -63zM92 369c0 37 32 71 65 71c26 0 43 -21 43 -47c0 -38 -32 -69 -65 -69c-26 0 -43 19 -43 45z" />
    <glyph glyph-name="cent" unicode="&#xa2;" horiz-adv-x="319" 
d="M285 435c-100 0 -228 -141 -228 -283c0 -61 24 -156 121 -156c64 0 128 88 128 109c-1 8 -8 22 -10 22c-4 -6 -46 -70 -94 -70c-63 0 -71 70 -71 105c0 134 81 234 129 234c28 0 36 -58 68 -58c23 0 40 18 40 41c0 6 -1 17 -2 22c-16 19 -51 34 -81 34zM293 474
c7 0 32 -1 31 -8l-176 -511c-8 0 -32 2 -31 9z" />
    <glyph glyph-name="sterling" unicode="&#xa3;" horiz-adv-x="438" 
d="M109 319h248c4 0 4 -5 3 -10c-1 -6 -8 -23 -20 -30h-240c-4 0 -3 8 -2 13c1 6 4 18 11 27zM215 258c-15 -75 -43 -130 -76 -174c18 7 28 9 69 9c50 0 104 -32 140 -32c41 0 65 50 82 73c4 0 9 -7 9 -17c0 -4 -1 -7 -2 -9c-20 -37 -66 -116 -132 -116
c-60 0 -124 37 -170 37c-29 0 -58 -22 -77 -38c-12 0 -15 13 -14 19c21 30 38 46 58 72c25 39 38 118 47 167c4 21 19 142 25 174c24 126 111 212 211 212c35 0 54 -13 64 -37c-3 -18 -15 -59 -39 -59c-38 0 -32 54 -70 54c-63 0 -83 -81 -96 -149c-7 -34 -26 -172 -29 -186
z" />
    <glyph glyph-name="currency" unicode="&#xa4;" horiz-adv-x="447" 
d="M247 463c-68 0 -127 -98 -127 -190c0 -70 34 -121 83 -121c68 0 126 97 126 189c0 70 -33 122 -82 122zM262 496c40 0 72 -15 96 -41l66 55c1 1 3 1 4 1c10 0 24 -24 26 -45l-67 -56c7 -19 11 -40 11 -63c0 -65 -32 -119 -56 -148l39 -58c0 -1 1 -1 1 -2
c0 -10 -28 -33 -50 -39l-37 55c-32 -22 -69 -35 -106 -35c-40 0 -74 15 -98 40l-59 -50c-1 -1 -3 -1 -4 -1c-10 0 -24 24 -26 45l60 51c-8 19 -12 40 -12 63c0 62 30 120 62 155l-37 56c0 1 -1 1 -1 2c0 10 28 33 50 39l37 -55c31 20 66 31 101 31z" />
    <glyph glyph-name="yen" unicode="&#xa5;" horiz-adv-x="611" 
d="M384 254h85c4 0 3 -8 2 -13c-1 -6 -3 -16 -10 -25h-85l-7 -40h85c4 0 3 -8 2 -13c-1 -6 -3 -16 -10 -25h-85c-5 -26 -12 -65 -11 -92c1 -11 43 -22 50 -22c3 0 3 -6 2 -12s-3 -12 -5 -15c-36 2 -60 5 -99 5c-41 0 -66 -3 -107 -5c-1 2 -3 8 -2 13c1 7 4 14 7 14
c11 0 55 10 62 22c10 23 19 61 25 92h-86c-4 0 -3 8 -2 13c1 6 4 16 11 25h84l8 40h-85c-4 0 -3 8 -2 13c1 6 3 16 10 25h85c1 3 3 14 2 16c0 13 -8 41 -80 262c-11 36 -14 40 -28 62c-9 14 -45 21 -56 21c-2 0 -2 5 -1 11s4 14 6 16c44 -2 62 -6 107 -6s81 4 118 6
c1 -6 -3 -27 -8 -27c-13 0 -55 -7 -60 -32c-2 -8 1 -18 4 -29l61 -206c4 -5 8 -1 10 2c69 85 162 204 168 234c3 13 -18 31 -56 31c-5 0 -1 22 5 27c33 -2 52 -6 85 -6c46 0 92 4 129 6c0 -3 0 -10 -1 -15c-1 -6 -3 -12 -6 -12c-7 0 -74 -10 -92 -29
c-26 -33 -220 -283 -224 -304z" />
    <glyph glyph-name="brokenbar" unicode="&#xa6;" horiz-adv-x="203" 
d="M157 754c10 10 26 16 44 16c7 0 16 -3 15 -7l-69 -363c-7 -8 -26 -17 -45 -17c-6 0 -16 3 -15 8zM59 248c10 10 26 16 44 16c7 0 16 -3 15 -7l-69 -363c-7 -8 -27 -17 -46 -17c-6 0 -15 3 -14 8z" />
    <glyph glyph-name="section" unicode="&#xa7;" horiz-adv-x="348" 
d="M272 652c49 0 66 -22 72 -37c-3 -34 -17 -60 -42 -60c-29 0 -25 59 -69 59c-40 0 -75 -40 -75 -91c0 -107 170 -108 170 -233c0 -99 -62 -149 -83 -165c0 -4 1 -9 1 -14c0 -71 -40 -174 -164 -174c-49 0 -67 21 -73 36c3 34 17 61 42 61c29 0 24 -61 68 -61
c40 0 75 42 75 92c0 107 -170 108 -170 233c0 91 47 137 84 166c0 5 -1 9 -1 14c0 82 52 174 165 174zM76 354c0 -96 129 -103 162 -195c18 13 38 30 38 76c0 95 -128 102 -161 194c-12 -9 -39 -25 -39 -75z" />
    <glyph glyph-name="dieresis" unicode="&#xa8;" horiz-adv-x="285" 
d="M239 577c21 0 37 -19 37 -40c0 -31 -23 -60 -54 -60c-22 0 -34 22 -34 44c0 30 21 56 51 56zM70 577c21 0 37 -19 37 -40c0 -31 -23 -60 -54 -60c-22 0 -34 22 -34 44c0 30 21 56 51 56z" />
    <glyph glyph-name="copyright" unicode="&#xa9;" horiz-adv-x="547" 
d="M309 483c28 0 71 -6 100 -19c1 -2 2 -5 2 -8c1 -14 1 -41 1 -50c0 -11 -13 -12 -16 -12c-2 0 -5 1 -6 2c0 13 -10 53 -76 53c-55 0 -113 -59 -113 -134c0 -60 41 -88 78 -88c76 0 83 40 91 52c0 0 2 1 4 1c6 0 14 -4 14 -4c-1 -3 -24 -59 -31 -62
c-32 -13 -63 -19 -102 -19c-65 0 -109 47 -109 112c0 87 75 176 163 176zM336 615c122 0 206 -93 206 -217c0 -173 -154 -329 -313 -329c-122 0 -205 93 -205 217c0 173 153 329 312 329zM330 584c-139 0 -276 -138 -276 -292c0 -109 74 -192 182 -192
c139 0 277 138 277 291c0 110 -75 193 -183 193z" />
    <glyph glyph-name="ordfeminine" unicode="&#xaa;" horiz-adv-x="319" 
d="M233 556c24 0 52 -5 57 -10l-38 -201c-3 -16 -3 -26 -3 -29c0 -19 7 -26 15 -26c14 0 41 51 44 51c1 0 6 -9 7 -15c-5 -14 -40 -76 -75 -76c-26 0 -39 18 -39 51c0 18 5 42 5 46c0 1 -1 2 -1 2c-1 0 0 -1 -1 -2c-12 -26 -72 -98 -117 -98s-60 28 -60 73
c0 110 126 234 206 234zM228 530c-62 0 -142 -120 -142 -192c0 -16 -1 -48 30 -48c29 0 91 85 103 152l13 71c0 2 1 6 1 8c0 4 0 9 -5 9z" />
    <glyph glyph-name="guillemotleft" unicode="&#xab;" horiz-adv-x="416" 
d="M405 423c3 -1 18 -6 18 -16c0 -7 4 -7 -70 -69c-26 -22 -77 -72 -99 -91l63 -90c26 -36 45 -54 45 -66c0 -11 -22 -16 -26 -18c-10 15 -79 92 -161 154c-3 2 -4 5 -4 10c0 10 5 24 12 31c119 67 211 145 222 155zM87 247c89 -134 109 -138 109 -155
c0 -12 -26 -18 -27 -19c-10 15 -79 92 -161 154c-3 2 -4 6 -4 10c0 6 3 22 12 31c123 70 220 152 223 155c16 -5 17 -13 17 -16c0 -7 4 -7 -70 -69c-26 -22 -77 -72 -99 -91z" />
    <glyph glyph-name="logicalnot" unicode="&#xac;" horiz-adv-x="474" 
d="M40 420h414c6 0 11 -1 9 -11l-47 -240c-3 -3 -25 -9 -42 -9c-6 0 -15 2 -14 8l37 186v1c0 4 -4 9 -10 9h-365s-3 12 -3 18c0 17 12 38 21 38z" />
    <glyph glyph-name="registered" unicode="&#xae;" horiz-adv-x="547" 
d="M304 529c-29 0 -33 -4 -34 -10l-14 -75c0 -2 -2 -3 -2 -4c0 -11 23 -12 38 -12c31 0 50 32 50 63c0 28 -17 38 -38 38zM314 554c38 0 74 -20 74 -61c0 -38 -24 -62 -58 -79c-1 -1 -1 -2 -1 -3v-1c2 -12 17 -48 32 -77c14 -28 24 -47 47 -47c0 -4 -1 -9 -2 -11
c-4 -2 -11 -3 -18 -3c-59 0 -71 22 -111 126c-3 7 -9 9 -17 9c-9 0 -12 -2 -13 -8l-17 -89v-11c0 -3 1 -7 3 -8c6 -3 15 -6 19 -6c1 0 1 -2 1 -3c0 -4 -1 -6 -2 -10c-19 1 -31 2 -50 2c-21 0 -34 -1 -55 -2c0 3 -1 5 -1 8c0 2 2 3 3 5c37 5 29 10 37 45l33 169
c2 11 4 18 4 29c0 9 -16 13 -22 13c-1 0 -2 1 -2 2c0 4 2 6 3 10c17 -1 26 -3 43 -3c27 0 43 4 70 4zM341 680c140 0 231 -122 202 -273s-168 -274 -308 -274s-230 123 -201 274s167 273 307 273zM336 648c-124 0 -245 -108 -271 -241s53 -242 177 -242s246 109 272 242
s-54 241 -178 241z" />
    <glyph glyph-name="macron" unicode="&#xaf;" horiz-adv-x="261" 
d="M43 596h198c5 0 8 -9 8 -18c0 -12 -12 -35 -18 -39h-201c-4 0 -5 11 -5 19c0 11 10 31 18 38z" />
    <glyph glyph-name="degree" unicode="&#xb0;" horiz-adv-x="201" 
d="M119 597c-35 0 -69 -32 -69 -73c0 -28 18 -50 46 -50c35 0 69 35 69 74c0 28 -18 49 -46 49zM126 634c44 0 75 -34 75 -79c0 -62 -57 -118 -112 -118c-44 0 -75 35 -75 80c0 65 59 117 112 117z" />
    <glyph glyph-name="plusminus" unicode="&#xb1;" horiz-adv-x="497" 
d="M14 92h430c3 0 4 -3 4 -9c0 -14 -9 -34 -21 -47h-430c-3 0 -5 3 -5 9c0 14 11 33 22 47zM72 389h178c3 0 4 2 4 4c12 60 19 118 33 188c3 14 52 18 56 18c9 0 11 -5 10 -9c0 0 -23 -134 -35 -196c-1 -3 0 -5 3 -5h181c3 0 4 -3 4 -9c0 -14 -9 -34 -21 -47h-179
c-3 0 -4 -2 -4 -4l-35 -188c-2 -11 -32 -18 -50 -18c-11 0 -16 5 -15 9c0 0 25 140 36 196c0 2 1 5 -4 5h-179c-3 0 -5 3 -5 9c0 14 11 33 22 47z" />
    <glyph glyph-name="uni00B2" unicode="&#xb2;" horiz-adv-x="302" 
d="M303 563c0 -125 -210 -233 -210 -252c0 -1 0 -1 1 -1h127c32 0 42 37 49 37c5 0 12 -2 15 -4c-16 -29 -24 -57 -37 -89l-112 1l-122 -1c-4 2 -5 12 -5 19c0 4 1 9 4 14c112 108 216 197 216 257c0 24 -13 50 -46 50c-22 0 -77 -43 -83 -43c-2 0 -8 14 -8 21
c0 4 2 10 3 12c11 16 71 63 125 63c51 0 83 -37 83 -84z" />
    <glyph glyph-name="uni00B3" unicode="&#xb3;" horiz-adv-x="279" 
d="M104 283c52 0 102 46 102 108c0 35 -21 53 -50 53c-26 0 -19 -2 -49 -6c-3 5 -5 10 -5 14c0 7 4 14 11 16c87 18 103 75 103 94c0 21 -19 34 -40 34c-40 0 -66 -37 -77 -37c-8 0 -5 34 -5 34c29 31 74 54 123 54c26 0 64 -22 64 -64c0 -56 -51 -82 -80 -99
c23 0 73 -28 73 -82c0 -72 -82 -155 -195 -155c-39 0 -68 15 -72 26c1 23 19 44 36 44c28 0 29 -34 61 -34z" />
    <glyph glyph-name="acute" unicode="&#xb4;" horiz-adv-x="207" 
d="M170 687c27 0 33 -12 33 -21c0 -37 -162 -139 -171 -139c-5 0 -10 12 -10 16c0 10 82 110 100 127c14 14 30 17 48 17z" />
    <glyph glyph-name="uni00B5" unicode="&#xb5;" horiz-adv-x="473" 
d="M103 17c-23 -149 -34 -241 -85 -241c-17 0 -28 17 -28 34c0 6 1 8 2 14c37 64 69 201 82 267l45 232c1 5 1 12 1 17c0 28 -11 37 -22 37c-21 0 -61 -73 -65 -73c-1 0 -9 14 -10 22c7 20 59 109 110 109c38 0 56 -26 56 -73c0 -40 -36 -184 -36 -245c0 -36 14 -49 34 -49
c36 0 135 141 158 256l21 105c10 3 21 5 32 5s22 -2 34 -5l-62 -321c-1 -4 -1 -11 -1 -15c0 -22 9 -41 27 -41c17 0 56 73 60 73c1 0 9 -14 10 -22c-7 -20 -59 -109 -110 -109c-38 0 -56 26 -56 73c0 31 7 64 15 101c0 0 1 1 1 2s-1 1 -2 1s-1 -1 -1 -2
c-25 -57 -93 -175 -152 -175c-36 0 -47 11 -58 23z" />
    <glyph glyph-name="paragraph" unicode="&#xb6;" horiz-adv-x="414" 
d="M210 286l-44 -237v-2c0 -8 12 -11 20 -11c9 0 20 8 21 14c9 34 30 139 50 245c0 3 0 4 -2 4c-3 0 -13 -3 -38 -6c-6 -1 -6 -2 -7 -7zM218 652c55 0 49 -4 104 -4c61 0 105 5 105 5c1 -1 1 -4 1 -7c0 -9 -3 -22 -7 -22c-11 0 -53 -8 -60 -20c-8 -16 -51 -254 -51 -255
c0 -2 1 -3 2 -3h2l41 8c1 -3 1 -6 1 -8c0 -16 -13 -27 -23 -30l-25 -7c-2 -1 -7 -3 -7 -5c-5 -28 -44 -224 -44 -257c0 -16 52 -24 57 -24c2 0 2 -2 2 -5c0 -7 -3 -19 -7 -22c-58 2 -91 6 -150 6c-43 0 -74 -4 -112 -6v2c0 8 4 25 8 25c7 0 56 11 61 22c15 33 51 238 51 241
c0 5 -4 5 -18 5c-91 0 -128 80 -128 147c0 108 104 214 197 214zM273 599c-2 -10 -54 -253 -54 -262c0 -2 3 -5 7 -5c14 1 36 6 36 6c2 0 5 2 6 6c3 17 47 249 47 257c0 4 -10 10 -19 10s-21 -1 -23 -12z" />
    <glyph glyph-name="periodcentered" unicode="&#xb7;" horiz-adv-x="131" 
d="M10 252c0 37 34 70 67 70c26 0 43 -20 43 -46c0 -37 -33 -71 -66 -71c-26 0 -44 20 -44 47z" />
    <glyph glyph-name="cedilla" unicode="&#xb8;" horiz-adv-x="161" 
d="M87 -4h19l-20 -23h22c21 0 33 -17 33 -38c0 -37 -37 -87 -104 -87c-11 0 -24 5 -29 9v9c0 15 12 19 15 19c11 0 17 -13 32 -13c27 0 48 17 48 41c0 19 -13 26 -24 26c-10 0 -15 -3 -25 -7c-2 0 -7 7 -7 11s17 20 40 53z" />
    <glyph glyph-name="uni00B9" unicode="&#xb9;" horiz-adv-x="218" 
d="M51 579c75 34 151 73 159 73c3 0 6 -20 6 -23c0 0 -17 -42 -24 -81l-40 -208c-2 -12 -4 -21 -4 -30c0 -6 1 -13 4 -17c5 -7 36 -14 43 -14c2 0 2 -3 2 -7c0 -7 -2 -16 -4 -19c-36 1 -55 3 -91 3s-57 -2 -94 -3c-1 1 -1 2 -1 5c0 7 3 20 7 20c11 0 49 8 54 14
c7 8 11 26 15 48l33 173c3 21 6 35 6 44s-3 12 -10 12c-9 0 -33 -9 -60 -18c-4 1 -8 11 -8 15s1 10 7 13z" />
    <glyph glyph-name="ordmasculine" unicode="&#xba;" horiz-adv-x="312" 
d="M191 529c-74 0 -96 -87 -96 -165c0 -50 15 -93 58 -93c76 0 93 97 93 170c0 47 -14 88 -55 88zM201 554c66 0 111 -54 111 -122c0 -92 -73 -185 -171 -185c-66 0 -112 52 -112 120c0 90 73 187 172 187z" />
    <glyph glyph-name="guillemotright" unicode="&#xbb;" horiz-adv-x="425" 
d="M83 423c16 -24 93 -106 162 -155c2 -4 3 -10 3 -16c0 -11 -3 -22 -10 -25c-138 -80 -222 -154 -222 -154c-4 1 -18 6 -18 15c0 11 9 16 70 69l98 90l-64 91c-31 38 -43 56 -43 64c0 16 18 18 24 21zM250 423c12 -18 89 -104 161 -155c3 -4 4 -9 4 -14
c0 -9 -3 -24 -11 -27c-130 -76 -221 -154 -221 -154c-4 1 -18 6 -18 15c0 11 9 16 70 69l98 90l-64 91c-43 53 -44 58 -44 63c0 16 20 20 25 22z" />
    <glyph glyph-name="onequarter" unicode="&#xbc;" horiz-adv-x="563" 
d="M43 579c75 34 151 73 159 73c3 0 6 -20 6 -23c0 0 -17 -42 -24 -81l-40 -208c-2 -12 -4 -21 -4 -30c0 -6 2 -13 5 -17c5 -7 35 -14 42 -14c2 0 2 -3 2 -7c0 -7 -2 -16 -4 -19c-36 1 -55 3 -91 3s-57 -2 -94 -3c-1 1 -1 2 -1 5c0 7 3 20 7 20c11 0 49 8 54 14
c7 8 11 26 15 48l33 173c3 21 6 35 6 44s-3 12 -10 12c-9 0 -33 -9 -60 -18c-4 1 -8 11 -8 15s1 10 7 13zM552 618l-446 -632s-33 7 -33 18c0 2 0 4 2 6l447 632s31 -8 31 -19c0 -2 0 -4 -1 -5zM514 390c5 5 12 7 15 7s25 1 23 -7l-45 -228v-1c0 -2 2 -3 4 -3h24
c5 0 9 -3 9 -7c0 -21 -6 -33 -11 -36h-32c-2 0 -3 -2 -4 -5l-22 -110c-4 -2 -12 -5 -27 -5c-29 0 -37 6 -36 9l20 108v1c0 2 -1 2 -3 2h-139c-3 5 -7 11 -7 26zM345 158h91c2 0 5 1 6 5l26 129c0 2 -1 4 -2 4h-1l-122 -130c-1 -1 -1 -2 -1 -3c0 -2 1 -5 3 -5z" />
    <glyph glyph-name="onehalf" unicode="&#xbd;" horiz-adv-x="609" 
d="M538 618l-446 -632s-33 7 -33 18c0 2 0 4 2 6l447 632s32 -8 32 -19c0 -2 -1 -4 -2 -5zM514 56c51 0 27 36 58 36c3 0 6 0 7 -2c-16 -29 -24 -58 -37 -90h-234c-4 2 -8 9 -8 17c0 5 2 11 6 16c102 98 216 197 216 258c0 24 -13 49 -46 49c-22 0 -56 -17 -76 -40
c-1 -1 -2 -2 -4 -2c-4 0 -10 16 -10 23c0 3 1 8 1 8c30 33 83 64 126 64c51 0 83 -37 83 -84c0 -125 -210 -232 -210 -252c0 -1 0 -1 1 -1h127zM191 638h4c6 0 6 -21 6 -24c0 0 -18 -41 -25 -80l-38 -196c-2 -12 -4 -21 -4 -30c0 -6 1 -11 2 -17c1 -7 38 -15 45 -15
c2 0 2 -3 2 -6c0 -7 -2 -16 -4 -19c-36 1 -51 3 -87 3s-53 -2 -90 -3c-1 1 -2 3 -2 6c0 7 3 18 7 18c11 0 47 8 51 15c11 19 12 26 16 48l30 161c1 5 5 25 5 40c0 12 -2 16 -10 16c-10 0 -26 -8 -47 -15c-8 4 -11 4 -11 11c0 20 1 -1 150 87z" />
    <glyph glyph-name="threequarters" unicode="&#xbe;" horiz-adv-x="593" 
d="M573 618l-446 -632s-33 7 -33 18c0 2 0 4 2 6l447 632s31 -8 31 -19c0 -2 0 -4 -1 -5zM94 558c-5 0 -8 5 -8 27c0 3 2 7 2 8c29 31 74 54 123 54c26 0 65 -22 65 -64c0 -57 -53 -83 -80 -99c23 0 71 -27 71 -81c0 -78 -88 -156 -194 -156c-39 0 -68 15 -72 26
c1 23 18 44 35 44c28 0 31 -34 63 -34c53 0 100 47 100 109c0 35 -19 52 -48 52c-26 0 -19 -2 -49 -6c-3 5 -5 10 -5 14c0 7 4 14 11 16c86 18 102 75 102 94c0 22 -19 34 -41 34c-33 0 -66 -38 -75 -38zM479 -5c-30 0 -36 8 -36 9l21 108c0 3 -1 3 -3 3h-139
c-3 5 -7 13 -7 23v3l231 249c5 5 15 7 19 7c7 0 18 -1 18 -6v-1l-44 -227v-1c0 -2 2 -3 4 -3h25c5 0 8 -3 8 -7c-5 -39 -2 -29 -12 -37l-32 -1c-2 0 -3 -2 -4 -5l-21 -109c-1 -3 0 -5 -28 -5zM474 163l25 129c0 2 -1 5 -2 5c-2 -2 -124 -131 -124 -133s2 -6 4 -6h91
c2 0 5 1 6 5z" />
    <glyph glyph-name="questiondown" unicode="&#xbf;" horiz-adv-x="277" 
d="M138 228c0 6 5 11 10 14c24 0 98 -42 98 -98c0 -44 -24 -69 -42 -83l-119 -84c-20 -14 -52 -36 -52 -69c0 -32 19 -62 62 -62c39 0 38 47 68 47c20 0 36 -19 40 -47c-5 -15 -26 -54 -73 -54c-83 0 -145 67 -145 129c0 96 41 100 159 181c25 17 33 33 33 60
c0 30 -39 56 -39 66zM273 391c0 -38 -32 -70 -65 -70c-26 0 -45 20 -45 46c0 37 35 70 68 70c26 0 42 -20 42 -46z" />
    <glyph glyph-name="Agrave" unicode="&#xc0;" horiz-adv-x="606" 
d="M451 710c-17 0 -161 48 -161 74c0 11 20 24 58 24c7 0 14 -1 17 -2c29 -19 99 -78 99 -86c0 -7 -10 -10 -13 -10zM436 239c0 7 1 10 -101 10c-38 0 -50 -2 -93 -5c-6 0 -97 -155 -97 -189c0 -25 53 -31 55 -31s2 -3 2 -6c0 -7 -3 -17 -5 -21c-37 2 -54 5 -95 5
c-43 0 -55 -3 -98 -5c-1 1 -2 5 -2 8c0 8 3 19 7 19c11 0 46 8 58 21c24 26 41 58 61 94l276 496c10 18 27 27 39 27c3 0 6 -1 8 -2l83 -528c6 -37 8 -52 12 -72c5 -24 51 -36 58 -36c2 0 2 -2 2 -5c0 -6 -3 -18 -5 -22c-37 2 -63 5 -104 5c-43 0 -64 -3 -107 -5
c-1 1 -1 3 -1 6c0 8 3 21 7 21c11 0 44 8 51 20c6 13 7 31 7 47c0 20 -10 90 -18 148zM348 298c29 0 46 0 75 2c2 0 4 2 4 4c0 11 -25 166 -33 222c-123 -223 -123 -223 -123 -225c0 -1 0 -2 1 -2c23 -1 55 -1 76 -1z" />
    <glyph glyph-name="Aacute" unicode="&#xc1;" horiz-adv-x="606" 
d="M421 711c-3 0 -13 3 -13 10c0 8 70 67 99 86c3 1 10 2 17 2c38 0 58 -13 58 -24c0 -26 -144 -74 -161 -74zM436 239c0 7 1 10 -101 10c-38 0 -50 -2 -93 -5c-6 0 -97 -155 -97 -189c0 -25 53 -31 55 -31s2 -3 2 -6c0 -7 -3 -17 -5 -21c-37 2 -54 5 -95 5
c-43 0 -55 -3 -98 -5c-1 1 -2 5 -2 8c0 8 3 19 7 19c11 0 46 8 58 21c24 26 41 58 61 94l276 496c10 18 27 27 39 27c3 0 6 -1 8 -2l83 -528c6 -37 8 -52 12 -72c5 -24 51 -36 58 -36c2 0 2 -2 2 -5c0 -6 -3 -18 -5 -22c-37 2 -63 5 -104 5c-43 0 -64 -3 -107 -5
c-1 1 -1 3 -1 6c0 8 3 21 7 21c11 0 44 8 51 20c6 13 7 31 7 47c0 20 -10 90 -18 148zM348 298c29 0 46 0 75 2c2 0 4 2 4 4c0 11 -25 166 -33 222c-123 -223 -123 -223 -123 -225c0 -1 0 -2 1 -2c23 -1 55 -1 76 -1z" />
    <glyph glyph-name="Acircumflex" unicode="&#xc2;" horiz-adv-x="606" 
d="M566 728c-13 0 -70 37 -99 58c-38 -23 -110 -58 -123 -58c-8 0 -7 16 -6 20c10 9 43 30 77 56c20 14 39 29 55 46c7 6 8 8 13 8c6 0 9 -3 11 -8c9 -16 19 -33 32 -48c25 -29 55 -51 55 -54c-2 -8 -8 -20 -15 -20zM436 239c0 7 1 10 -101 10c-38 0 -50 -2 -93 -5
c-6 0 -97 -155 -97 -189c0 -25 53 -31 55 -31s2 -3 2 -6c0 -7 -3 -17 -5 -21c-37 2 -54 5 -95 5c-43 0 -55 -3 -98 -5c-1 1 -2 5 -2 8c0 8 3 19 7 19c11 0 46 8 58 21c24 26 41 58 61 94l276 496c10 18 27 27 39 27c3 0 6 -1 8 -2l83 -528c6 -37 8 -52 12 -72
c5 -24 51 -36 58 -36c2 0 2 -2 2 -5c0 -6 -3 -18 -5 -22c-37 2 -63 5 -104 5c-43 0 -64 -3 -107 -5c-1 1 -1 3 -1 6c0 8 3 21 7 21c11 0 44 8 51 20c6 13 7 31 7 47c0 20 -10 90 -18 148zM348 298c29 0 46 0 75 2c2 0 4 2 4 4c0 11 -25 166 -33 222
c-123 -223 -123 -223 -123 -225c0 -1 0 -2 1 -2c23 -1 55 -1 76 -1z" />
    <glyph glyph-name="Atilde" unicode="&#xc3;" horiz-adv-x="606" 
d="M295 737c-7 0 -5 9 -3 17c3 15 14 28 23 38c26 27 50 40 80 40c63 0 87 -53 150 -53c26 0 65 44 69 44s5 -9 3 -17c-2 -12 -14 -29 -23 -39c-26 -28 -48 -39 -78 -39c-64 0 -87 53 -151 53c-26 0 -63 -44 -70 -44zM436 239c0 7 1 10 -101 10c-38 0 -50 -2 -93 -5
c-6 0 -97 -155 -97 -189c0 -25 53 -31 55 -31s2 -3 2 -6c0 -7 -3 -17 -5 -21c-37 2 -54 5 -95 5c-43 0 -55 -3 -98 -5c-1 1 -2 5 -2 8c0 8 3 19 7 19c11 0 46 8 58 21c24 26 41 58 61 94l276 496c10 18 27 27 39 27c3 0 6 -1 8 -2l83 -528c6 -37 8 -52 12 -72
c5 -24 51 -36 58 -36c2 0 2 -2 2 -5c0 -6 -3 -18 -5 -22c-37 2 -63 5 -104 5c-43 0 -64 -3 -107 -5c-1 1 -1 3 -1 6c0 8 3 21 7 21c11 0 44 8 51 20c6 13 7 31 7 47c0 20 -10 90 -18 148zM348 298c29 0 46 0 75 2c2 0 4 2 4 4c0 11 -25 166 -33 222
c-123 -223 -123 -223 -123 -225c0 -1 0 -2 1 -2c23 -1 55 -1 76 -1z" />
    <glyph glyph-name="Adieresis" unicode="&#xc4;" horiz-adv-x="606" 
d="M485 778c5 28 30 50 56 50s42 -22 37 -50s-30 -50 -56 -50s-42 22 -37 50zM317 778c5 28 30 50 56 50s42 -22 37 -50s-31 -50 -57 -50s-41 22 -36 50zM436 239c0 7 1 10 -101 10c-38 0 -50 -2 -93 -5c-6 0 -97 -155 -97 -189c0 -25 53 -31 55 -31s2 -3 2 -6
c0 -7 -3 -17 -5 -21c-37 2 -54 5 -95 5c-43 0 -55 -3 -98 -5c-1 1 -2 5 -2 8c0 8 3 19 7 19c11 0 46 8 58 21c24 26 41 58 61 94l276 496c10 18 27 27 39 27c3 0 6 -1 8 -2l83 -528c6 -37 8 -52 12 -72c5 -24 51 -36 58 -36c2 0 2 -2 2 -5c0 -6 -3 -18 -5 -22
c-37 2 -63 5 -104 5c-43 0 -64 -3 -107 -5c-1 1 -1 3 -1 6c0 8 3 21 7 21c11 0 44 8 51 20c6 13 7 31 7 47c0 20 -10 90 -18 148zM348 298c29 0 46 0 75 2c2 0 4 2 4 4c0 11 -25 166 -33 222c-123 -223 -123 -223 -123 -225c0 -1 0 -2 1 -2c23 -1 55 -1 76 -1z" />
    <glyph glyph-name="Aring" unicode="&#xc5;" horiz-adv-x="606" 
d="M395 749c-6 -31 13 -56 41 -56s55 25 61 56s-11 55 -39 55s-57 -24 -63 -55zM364 749c10 49 56 89 101 89s73 -40 63 -89s-53 -90 -98 -90s-76 41 -66 90zM436 239c0 7 1 10 -101 10c-38 0 -50 -2 -93 -5c-6 0 -97 -155 -97 -189c0 -25 53 -31 55 -31s2 -3 2 -6
c0 -7 -3 -17 -5 -21c-37 2 -54 5 -95 5c-43 0 -55 -3 -98 -5c-1 1 -2 5 -2 8c0 8 3 19 7 19c11 0 46 8 58 21c24 26 41 58 61 94l276 496c10 18 27 27 39 27c3 0 6 -1 8 -2l83 -528c6 -37 8 -52 12 -72c5 -24 51 -36 58 -36c2 0 2 -2 2 -5c0 -6 -3 -18 -5 -22
c-37 2 -63 5 -104 5c-43 0 -64 -3 -107 -5c-1 1 -1 3 -1 6c0 8 3 21 7 21c11 0 44 8 51 20c6 13 7 31 7 47c0 20 -10 90 -18 148zM348 298c29 0 46 0 75 2c2 0 4 2 4 4c0 11 -25 166 -33 222c-123 -223 -123 -223 -123 -225c0 -1 0 -2 1 -2c23 -1 55 -1 76 -1z" />
    <glyph glyph-name="AE" unicode="&#xc6;" horiz-adv-x="847" 
d="M211 50c0 -16 41 -26 51 -26c1 0 1 -1 1 -2c0 -6 -6 -20 -9 -25c-37 2 -53 5 -94 5c-43 0 -53 -3 -96 -5c-1 1 -1 5 -1 6c0 8 5 21 9 21c11 0 46 8 60 21c29 26 54 57 79 94l312 447c3 4 5 9 5 15c0 11 -8 24 -30 24c-2 0 -3 2 -3 5c0 8 6 22 10 26h87c87 0 199 8 300 8
c-3 -50 -7 -90 -9 -134c-3 -3 -10 -5 -17 -5c-6 0 -12 2 -12 7c-4 78 -49 84 -82 84h-59c-38 0 -78 -1 -82 -13c-8 -27 -11 -60 -15 -98l-15 -158v-1c0 -6 13 -6 31 -6h33c85 0 82 2 113 71c2 5 9 7 15 7c7 0 13 -2 15 -5c-16 -63 -21 -129 -26 -192c-3 -2 -9 -4 -15 -4
s-12 2 -13 7c-3 57 -10 58 -17 64c-9 7 -65 8 -100 8c-26 0 -40 -1 -41 -10l-12 -132c0 -2 -9 -82 -9 -91c0 -11 6 -19 61 -19h15c35 0 84 3 112 17c20 10 45 48 70 101c2 4 8 6 15 6c9 0 19 -3 21 -6c-28 -54 -59 -122 -74 -166c-101 0 -188 6 -273 6
c-61 0 -126 -5 -126 -5c-1 1 -1 3 -1 6c0 10 5 28 9 28c11 0 67 10 73 19c21 31 27 143 35 235c0 5 -2 8 -6 8c-25 1 -68 1 -68 1s-41 0 -67 -1c-3 0 -4 -1 -6 -3l-109 -159c-35 -50 -45 -70 -45 -81zM540 547l-140 -203c-1 -1 -1 -4 1 -4c19 -1 37 -1 53 -1c20 0 39 0 59 2
l6 5z" />
    <glyph glyph-name="Ccedilla" unicode="&#xc7;" horiz-adv-x="580" 
d="M276 -27h28c29 0 43 -27 37 -58c-11 -55 -64 -89 -121 -89c-13 0 -29 5 -35 10c0 6 -1 10 0 17c2 8 11 16 18 16c13 0 20 -15 38 -15c31 0 51 19 55 39c5 28 -12 40 -26 40c-12 0 -19 -3 -31 -8c-2 0 -11 10 -8 15c14 18 35 43 47 60h23zM437 667c61 0 142 -23 213 -45
c0 0 -18 -114 -20 -124s-16 -15 -24 -15c-6 0 -9 1 -11 3c0 31 -1 139 -163 139c-133 0 -281 -166 -281 -366c0 -122 67 -222 199 -222c55 0 96 14 126 33c56 34 75 83 80 83c4 0 21 -19 20 -25c-9 -17 -36 -75 -50 -91c-20 -22 -120 -43 -205 -43c-167 0 -261 135 -261 273
c0 177 164 400 377 400z" />
    <glyph glyph-name="Egrave" unicode="&#xc8;" horiz-adv-x="519" 
d="M429 710c-17 0 -161 48 -161 74c0 11 20 24 58 24c7 0 14 -1 17 -2c29 -19 99 -78 99 -86c0 -7 -10 -10 -13 -10zM261 656c86 0 192 8 293 8c-1 -14 -1 -26 -1 -39c0 -33 2 -64 2 -97c-3 -3 -11 -5 -18 -5c-6 0 -12 2 -12 7c-4 81 -42 86 -99 86h-54
c-36 0 -71 -1 -76 -13c-10 -27 -13 -40 -18 -67l-32 -175c-1 -7 18 -8 37 -8h45c89 0 90 2 121 71c2 5 8 7 14 7s13 -2 15 -5l-37 -192c-3 -2 -8 -4 -14 -4c-7 0 -13 2 -14 8c-3 57 -8 57 -15 63c-9 7 -62 8 -97 8c-26 0 -66 0 -68 -9l-29 -148c-7 -34 -11 -56 -11 -87
c0 -20 0 -21 61 -21h45c35 0 91 2 121 17c20 10 52 48 78 101c2 4 8 6 15 6c9 0 19 -3 21 -6c-29 -54 -67 -122 -82 -166c-101 0 -232 6 -316 6c-61 0 -111 -5 -111 -5c-1 1 -1 4 -1 8c0 10 1 19 5 19c11 0 61 12 67 25c14 29 19 56 26 93l72 372c6 33 13 71 11 93
c-1 12 -45 24 -56 24c-1 0 -2 1 -2 4c0 8 3 19 7 23c0 0 46 -2 107 -2z" />
    <glyph glyph-name="Eacute" unicode="&#xc9;" horiz-adv-x="519" 
d="M333 711c-3 0 -13 3 -13 10c0 8 70 67 99 86c3 1 10 2 17 2c38 0 58 -13 58 -24c0 -26 -144 -74 -161 -74zM261 656c86 0 192 8 293 8c-1 -14 -1 -26 -1 -39c0 -33 2 -64 2 -97c-3 -3 -11 -5 -18 -5c-6 0 -12 2 -12 7c-4 81 -42 86 -99 86h-54c-36 0 -71 -1 -76 -13
c-10 -27 -13 -40 -18 -67l-32 -175c-1 -7 18 -8 37 -8h45c89 0 90 2 121 71c2 5 8 7 14 7s13 -2 15 -5l-37 -192c-3 -2 -8 -4 -14 -4c-7 0 -13 2 -14 8c-3 57 -8 57 -15 63c-9 7 -62 8 -97 8c-26 0 -66 0 -68 -9l-29 -148c-7 -34 -11 -56 -11 -87c0 -20 0 -21 61 -21h45
c35 0 91 2 121 17c20 10 52 48 78 101c2 4 8 6 15 6c9 0 19 -3 21 -6c-29 -54 -67 -122 -82 -166c-101 0 -232 6 -316 6c-61 0 -111 -5 -111 -5c-1 1 -1 4 -1 8c0 10 1 19 5 19c11 0 61 12 67 25c14 29 19 56 26 93l72 372c6 33 13 71 11 93c-1 12 -45 24 -56 24
c-1 0 -2 1 -2 4c0 8 3 19 7 23c0 0 46 -2 107 -2z" />
    <glyph glyph-name="Ecircumflex" unicode="&#xca;" horiz-adv-x="519" 
d="M497 728c-13 0 -70 37 -99 58c-38 -23 -110 -58 -123 -58c-8 0 -7 16 -6 20c10 9 43 30 77 56c20 14 39 29 55 46c7 6 8 8 13 8c6 0 9 -3 11 -8c9 -16 19 -33 32 -48c25 -29 55 -51 55 -54c-2 -8 -8 -20 -15 -20zM261 656c86 0 192 8 293 8c-1 -14 -1 -26 -1 -39
c0 -33 2 -64 2 -97c-3 -3 -11 -5 -18 -5c-6 0 -12 2 -12 7c-4 81 -42 86 -99 86h-54c-36 0 -71 -1 -76 -13c-10 -27 -13 -40 -18 -67l-32 -175c-1 -7 18 -8 37 -8h45c89 0 90 2 121 71c2 5 8 7 14 7s13 -2 15 -5l-37 -192c-3 -2 -8 -4 -14 -4c-7 0 -13 2 -14 8
c-3 57 -8 57 -15 63c-9 7 -62 8 -97 8c-26 0 -66 0 -68 -9l-29 -148c-7 -34 -11 -56 -11 -87c0 -20 0 -21 61 -21h45c35 0 91 2 121 17c20 10 52 48 78 101c2 4 8 6 15 6c9 0 19 -3 21 -6c-29 -54 -67 -122 -82 -166c-101 0 -232 6 -316 6c-61 0 -111 -5 -111 -5
c-1 1 -1 4 -1 8c0 10 1 19 5 19c11 0 61 12 67 25c14 29 19 56 26 93l72 372c6 33 13 71 11 93c-1 12 -45 24 -56 24c-1 0 -2 1 -2 4c0 8 3 19 7 23c0 0 46 -2 107 -2z" />
    <glyph glyph-name="Edieresis" unicode="&#xcb;" horiz-adv-x="519" 
d="M416 778c5 28 30 50 56 50s42 -22 37 -50s-30 -50 -56 -50s-42 22 -37 50zM248 778c5 28 30 50 56 50s42 -22 37 -50s-31 -50 -57 -50s-41 22 -36 50zM261 656c86 0 192 8 293 8c-1 -14 -1 -26 -1 -39c0 -33 2 -64 2 -97c-3 -3 -11 -5 -18 -5c-6 0 -12 2 -12 7
c-4 81 -42 86 -99 86h-54c-36 0 -71 -1 -76 -13c-10 -27 -13 -40 -18 -67l-32 -175c-1 -7 18 -8 37 -8h45c89 0 90 2 121 71c2 5 8 7 14 7s13 -2 15 -5l-37 -192c-3 -2 -8 -4 -14 -4c-7 0 -13 2 -14 8c-3 57 -8 57 -15 63c-9 7 -62 8 -97 8c-26 0 -66 0 -68 -9l-29 -148
c-7 -34 -11 -56 -11 -87c0 -20 0 -21 61 -21h45c35 0 91 2 121 17c20 10 52 48 78 101c2 4 8 6 15 6c9 0 19 -3 21 -6c-29 -54 -67 -122 -82 -166c-101 0 -232 6 -316 6c-61 0 -111 -5 -111 -5c-1 1 -1 4 -1 8c0 10 1 19 5 19c11 0 61 12 67 25c14 29 19 56 26 93l72 372
c6 33 13 71 11 93c-1 12 -45 24 -56 24c-1 0 -2 1 -2 4c0 8 3 19 7 23c0 0 46 -2 107 -2z" />
    <glyph glyph-name="Igrave" unicode="&#xcc;" horiz-adv-x="263" 
d="M269 710c-17 0 -161 48 -161 74c0 11 20 24 58 24c7 0 14 -1 17 -2c29 -19 99 -78 99 -86c0 -7 -10 -10 -13 -10zM272 515l-71 -376c-7 -35 -11 -61 -11 -90c0 -19 54 -25 54 -25c1 0 2 -2 2 -4c0 -6 -4 -19 -6 -23c-37 2 -63 5 -104 5c-43 0 -67 -3 -110 -5
c-1 1 -2 5 -2 8c0 8 3 19 7 19c11 0 58 9 64 22c12 28 19 58 26 96l71 370c7 35 11 56 11 92c0 17 -45 27 -56 27c-1 0 -2 2 -2 5c0 7 4 18 8 22c42 -2 65 -6 108 -6c41 0 68 4 106 6v-3c0 -8 -3 -24 -7 -24c-7 0 -57 -12 -62 -23c-12 -27 -20 -64 -26 -93z" />
    <glyph glyph-name="Iacute" unicode="&#xcd;" horiz-adv-x="263" 
d="M227 711c-3 0 -13 3 -13 10c0 8 70 67 99 86c3 1 10 2 17 2c38 0 58 -13 58 -24c0 -26 -144 -74 -161 -74zM272 515l-71 -376c-7 -35 -11 -61 -11 -90c0 -19 54 -25 54 -25c1 0 2 -2 2 -4c0 -6 -4 -19 -6 -23c-37 2 -63 5 -104 5c-43 0 -67 -3 -110 -5c-1 1 -2 5 -2 8
c0 8 3 19 7 19c11 0 58 9 64 22c12 28 19 58 26 96l71 370c7 35 11 56 11 92c0 17 -45 27 -56 27c-1 0 -2 2 -2 5c0 7 4 18 8 22c42 -2 65 -6 108 -6c41 0 68 4 106 6v-3c0 -8 -3 -24 -7 -24c-7 0 -57 -12 -62 -23c-12 -27 -20 -64 -26 -93z" />
    <glyph glyph-name="Icircumflex" unicode="&#xce;" horiz-adv-x="263" 
d="M384 728c-13 0 -70 37 -99 58c-38 -23 -110 -58 -123 -58c-8 0 -7 16 -6 20c10 9 43 30 77 56c20 14 39 29 55 46c7 6 8 8 13 8c6 0 9 -3 11 -8c9 -16 19 -33 32 -48c25 -29 55 -51 55 -54c-2 -8 -8 -20 -15 -20zM272 515l-71 -376c-7 -35 -11 -61 -11 -90
c0 -19 54 -25 54 -25c1 0 2 -2 2 -4c0 -6 -4 -19 -6 -23c-37 2 -63 5 -104 5c-43 0 -67 -3 -110 -5c-1 1 -2 5 -2 8c0 8 3 19 7 19c11 0 58 9 64 22c12 28 19 58 26 96l71 370c7 35 11 56 11 92c0 17 -45 27 -56 27c-1 0 -2 2 -2 5c0 7 4 18 8 22c42 -2 65 -6 108 -6
c41 0 68 4 106 6v-3c0 -8 -3 -24 -7 -24c-7 0 -57 -12 -62 -23c-12 -27 -20 -64 -26 -93z" />
    <glyph glyph-name="Idieresis" unicode="&#xcf;" horiz-adv-x="263" 
d="M372 837c21 0 37 -19 37 -40c0 -31 -23 -60 -54 -60c-22 0 -34 22 -34 44c0 30 21 56 51 56zM203 837c21 0 37 -19 37 -40c0 -31 -23 -60 -54 -60c-22 0 -34 22 -34 44c0 30 21 56 51 56zM272 515l-71 -376c-7 -35 -11 -61 -11 -90c0 -19 54 -25 54 -25c1 0 2 -2 2 -4
c0 -6 -4 -19 -6 -23c-37 2 -63 5 -104 5c-43 0 -67 -3 -110 -5c-1 1 -2 5 -2 8c0 8 3 19 7 19c11 0 58 9 64 22c12 28 19 58 26 96l71 370c7 35 11 56 11 92c0 17 -45 27 -56 27c-1 0 -2 2 -2 5c0 7 4 18 8 22c42 -2 65 -6 108 -6c41 0 68 4 106 6v-3c0 -8 -3 -24 -7 -24
c-7 0 -57 -12 -62 -23c-12 -27 -20 -64 -26 -93z" />
    <glyph glyph-name="Eth" unicode="&#xd0;" horiz-adv-x="659" 
d="M420 663c184 0 264 -119 264 -253c0 -165 -128 -408 -394 -408c-41 0 -96 5 -158 5c-61 0 -111 -5 -111 -5c-1 1 -1 4 -1 8c0 10 1 19 5 19c11 0 61 12 67 25c14 29 19 56 26 93l72 372c6 33 13 71 11 93c-1 12 -45 24 -56 24c-1 0 -2 1 -2 4c0 8 3 19 7 23
c0 0 46 -2 107 -2c64 0 122 2 163 2zM418 619c-1 0 -108 -1 -120 -16c-18 -22 -21 -46 -27 -79l-73 -380c-4 -19 -4 -69 -1 -76c8 -18 101 -20 116 -20c174 0 283 185 283 371c0 109 -52 200 -178 200zM101 353h345c4 0 6 -5 6 -10c0 -6 -2 -21 -6 -30h-346c-4 0 -5 8 -5 13
c0 6 0 18 6 27z" />
    <glyph glyph-name="Ntilde" unicode="&#xd1;" horiz-adv-x="663" 
d="M327 737c-7 0 -5 9 -3 17c3 15 14 28 23 38c26 27 50 40 80 40c63 0 87 -53 150 -53c26 0 65 44 69 44s5 -9 3 -17c-2 -12 -14 -29 -23 -39c-26 -28 -48 -39 -78 -39c-64 0 -87 53 -151 53c-26 0 -63 -44 -70 -44zM158 658c39 -2 60 -4 99 -4c37 0 56 2 94 4
c20 -78 109 -291 192 -455c6 17 8 25 11 41l51 269c7 35 13 56 13 92c0 18 -59 26 -70 26c-2 0 -2 4 -2 7c0 7 3 17 7 20c41 -2 64 -5 105 -5c43 0 71 3 109 5c0 -8 0 -27 -6 -27c-7 0 -73 -11 -78 -22c-11 -26 -18 -56 -25 -93l-75 -380c-11 -54 -18 -109 -24 -140
c-3 -3 -7 -4 -10 -4c-9 0 -19 10 -26 23c-4 8 -150 345 -246 566l-89 -440c-7 -34 -10 -60 -10 -89c0 -19 65 -28 65 -28c2 0 2 -2 2 -5c0 -7 -3 -18 -5 -22c-37 2 -63 5 -104 5c-43 0 -67 -3 -110 -5c-1 1 -2 5 -2 8c0 8 3 19 7 19c11 0 71 12 77 24c14 27 19 58 27 96
l77 372c7 34 9 76 9 90c0 18 -57 25 -68 25c-2 0 -2 3 -2 7c0 7 3 17 7 20z" />
    <glyph glyph-name="Ograve" unicode="&#xd2;" horiz-adv-x="624" 
d="M454 710c-17 0 -161 48 -161 74c0 11 20 24 58 24c7 0 14 -1 17 -2c29 -19 99 -78 99 -86c0 -7 -10 -10 -13 -10zM409 625c-150 0 -258 -186 -258 -358c0 -130 58 -234 171 -234c144 0 256 189 256 362c0 127 -57 230 -169 230zM432 667c136 0 238 -116 238 -258
c0 -219 -175 -419 -374 -419c-145 0 -236 118 -236 269c0 215 190 408 372 408z" />
    <glyph glyph-name="Oacute" unicode="&#xd3;" horiz-adv-x="624" 
d="M388 711c-3 0 -13 3 -13 10c0 8 70 67 99 86c3 1 10 2 17 2c38 0 58 -13 58 -24c0 -26 -144 -74 -161 -74zM409 625c-150 0 -258 -186 -258 -358c0 -130 58 -234 171 -234c144 0 256 189 256 362c0 127 -57 230 -169 230zM432 667c136 0 238 -116 238 -258
c0 -219 -175 -419 -374 -419c-145 0 -236 118 -236 269c0 215 190 408 372 408z" />
    <glyph glyph-name="Ocircumflex" unicode="&#xd4;" horiz-adv-x="624" 
d="M554 728c-13 0 -70 37 -99 58c-38 -23 -110 -58 -123 -58c-8 0 -7 16 -6 20c10 9 43 30 77 56c20 14 39 29 55 46c7 6 8 8 13 8c6 0 9 -3 11 -8c9 -16 19 -33 32 -48c25 -29 55 -51 55 -54c-2 -8 -8 -20 -15 -20zM409 625c-150 0 -258 -186 -258 -358
c0 -130 58 -234 171 -234c144 0 256 189 256 362c0 127 -57 230 -169 230zM432 667c136 0 238 -116 238 -258c0 -219 -175 -419 -374 -419c-145 0 -236 118 -236 269c0 215 190 408 372 408z" />
    <glyph glyph-name="Otilde" unicode="&#xd5;" horiz-adv-x="624" 
d="M295 737c-7 0 -5 9 -3 17c3 15 14 28 23 38c26 27 50 40 80 40c63 0 87 -53 150 -53c26 0 65 44 69 44s5 -9 3 -17c-2 -12 -14 -29 -23 -39c-26 -28 -48 -39 -78 -39c-64 0 -87 53 -151 53c-26 0 -63 -44 -70 -44zM409 625c-150 0 -258 -186 -258 -358
c0 -130 58 -234 171 -234c144 0 256 189 256 362c0 127 -57 230 -169 230zM432 667c136 0 238 -116 238 -258c0 -219 -175 -419 -374 -419c-145 0 -236 118 -236 269c0 215 190 408 372 408z" />
    <glyph glyph-name="Odieresis" unicode="&#xd6;" horiz-adv-x="624" 
d="M491 778c5 28 30 50 56 50s42 -22 37 -50s-30 -50 -56 -50s-42 22 -37 50zM323 778c5 28 30 50 56 50s42 -22 37 -50s-31 -50 -57 -50s-41 22 -36 50zM409 625c-150 0 -258 -186 -258 -358c0 -130 58 -234 171 -234c144 0 256 189 256 362c0 127 -57 230 -169 230z
M432 667c136 0 238 -116 238 -258c0 -219 -175 -419 -374 -419c-145 0 -236 118 -236 269c0 215 190 408 372 408z" />
    <glyph glyph-name="multiply" unicode="&#xd7;" horiz-adv-x="394" 
d="M24 60c-6 0 -17 32 -17 48l154 135c1 1 2 2 2 3c0 2 0 4 -1 5l-101 137c0 14 33 47 38 47c2 0 2 -2 4 -4l104 -141c1 -1 3 -2 4 -2c0 0 1 0 2 1l158 141c2 2 4 3 6 3c7 0 17 -31 17 -49l-153 -136c-1 -1 -2 -1 -2 -2s0 -1 1 -2l100 -136c0 -14 -26 -48 -33 -48
c-4 0 -6 1 -7 3l-103 140c-1 1 -2 2 -3 2s-3 -1 -4 -2l-161 -140c-2 -2 -3 -3 -5 -3z" />
    <glyph glyph-name="Oslash" unicode="&#xd8;" horiz-adv-x="646" 
d="M137 -13c-8 3 -27 17 -22 23l516 657c8 -2 28 -16 23 -22zM430 625c-125 0 -218 -141 -244 -275c-30 -155 13 -317 157 -317c126 0 219 141 245 276c30 155 -14 316 -158 316zM89 328c36 187 199 339 363 339s268 -152 232 -339s-200 -338 -364 -338s-267 151 -231 338z
" />
    <glyph glyph-name="Ugrave" unicode="&#xd9;" horiz-adv-x="631" 
d="M437 710c-17 0 -161 48 -161 74c0 11 20 24 58 24c7 0 14 -1 17 -2c29 -19 99 -78 99 -86c0 -7 -10 -10 -13 -10zM173 512c7 36 11 56 11 92c0 17 -45 27 -56 27c-1 0 -2 2 -2 5c0 7 4 18 8 22c42 -2 65 -6 108 -6c41 0 68 4 106 6v-3c0 -8 -3 -24 -7 -24
c-7 0 -57 -12 -62 -23c-12 -27 -20 -64 -26 -93l-41 -217c-4 -22 -8 -59 -8 -85c0 -99 42 -164 131 -164c90 0 173 53 205 225l44 238c6 35 12 59 12 90c0 19 -61 29 -75 29c-2 0 -2 2 -2 6c0 7 3 18 7 21c42 -2 66 -6 108 -6s69 4 107 6c0 -9 -2 -27 -7 -27
c-7 0 -68 -13 -75 -23c-8 -10 -19 -61 -27 -98l-45 -234c-43 -221 -129 -276 -283 -276c-114 0 -184 71 -184 206c0 21 4 57 14 106z" />
    <glyph glyph-name="Uacute" unicode="&#xda;" horiz-adv-x="631" 
d="M412 711c-3 0 -13 3 -13 10c0 8 70 67 99 86c3 1 10 2 17 2c38 0 58 -13 58 -24c0 -26 -144 -74 -161 -74zM173 512c7 36 11 56 11 92c0 17 -45 27 -56 27c-1 0 -2 2 -2 5c0 7 4 18 8 22c42 -2 65 -6 108 -6c41 0 68 4 106 6v-3c0 -8 -3 -24 -7 -24c-7 0 -57 -12 -62 -23
c-12 -27 -20 -64 -26 -93l-41 -217c-4 -22 -8 -59 -8 -85c0 -99 42 -164 131 -164c90 0 173 53 205 225l44 238c6 35 12 59 12 90c0 19 -61 29 -75 29c-2 0 -2 2 -2 6c0 7 3 18 7 21c42 -2 66 -6 108 -6s69 4 107 6c0 -9 -2 -27 -7 -27c-7 0 -68 -13 -75 -23
c-8 -10 -19 -61 -27 -98l-45 -234c-43 -221 -129 -276 -283 -276c-114 0 -184 71 -184 206c0 21 4 57 14 106z" />
    <glyph glyph-name="Ucircumflex" unicode="&#xdb;" horiz-adv-x="631" 
d="M568 728c-13 0 -70 37 -99 58c-38 -23 -110 -58 -123 -58c-8 0 -7 16 -6 20c10 9 43 30 77 56c20 14 39 29 55 46c7 6 8 8 13 8c6 0 9 -3 11 -8c9 -16 19 -33 32 -48c25 -29 55 -51 55 -54c-2 -8 -8 -20 -15 -20zM173 512c7 36 11 56 11 92c0 17 -45 27 -56 27
c-1 0 -2 2 -2 5c0 7 4 18 8 22c42 -2 65 -6 108 -6c41 0 68 4 106 6v-3c0 -8 -3 -24 -7 -24c-7 0 -57 -12 -62 -23c-12 -27 -20 -64 -26 -93l-41 -217c-4 -22 -8 -59 -8 -85c0 -99 42 -164 131 -164c90 0 173 53 205 225l44 238c6 35 12 59 12 90c0 19 -61 29 -75 29
c-2 0 -2 2 -2 6c0 7 3 18 7 21c42 -2 66 -6 108 -6s69 4 107 6c0 -9 -2 -27 -7 -27c-7 0 -68 -13 -75 -23c-8 -10 -19 -61 -27 -98l-45 -234c-43 -221 -129 -276 -283 -276c-114 0 -184 71 -184 206c0 21 4 57 14 106z" />
    <glyph glyph-name="Udieresis" unicode="&#xdc;" horiz-adv-x="631" 
d="M490 778c5 28 30 50 56 50s42 -22 37 -50s-30 -50 -56 -50s-42 22 -37 50zM322 778c5 28 30 50 56 50s42 -22 37 -50s-31 -50 -57 -50s-41 22 -36 50zM173 512c7 36 11 56 11 92c0 17 -45 27 -56 27c-1 0 -2 2 -2 5c0 7 4 18 8 22c42 -2 65 -6 108 -6c41 0 68 4 106 6v-3
c0 -8 -3 -24 -7 -24c-7 0 -57 -12 -62 -23c-12 -27 -20 -64 -26 -93l-41 -217c-4 -22 -8 -59 -8 -85c0 -99 42 -164 131 -164c90 0 173 53 205 225l44 238c6 35 12 59 12 90c0 19 -61 29 -75 29c-2 0 -2 2 -2 6c0 7 3 18 7 21c42 -2 66 -6 108 -6s69 4 107 6
c0 -9 -2 -27 -7 -27c-7 0 -68 -13 -75 -23c-8 -10 -19 -61 -27 -98l-45 -234c-43 -221 -129 -276 -283 -276c-114 0 -184 71 -184 206c0 21 4 57 14 106z" />
    <glyph glyph-name="Yacute" unicode="&#xdd;" horiz-adv-x="593" 
d="M427 711c-3 0 -13 3 -13 10c0 8 70 67 99 86c3 1 10 2 17 2c38 0 58 -13 58 -24c0 -26 -144 -74 -161 -74zM244 652c46 0 86 4 124 6v-5c0 -8 -3 -22 -7 -22c-9 0 -63 -9 -63 -42c0 -6 1 -13 4 -22l65 -208c1 -2 2 -3 3 -3c2 0 6 3 7 5c0 0 171 214 171 239
c0 18 -37 31 -62 31c-2 0 -2 2 -2 6c0 7 3 18 7 21c34 -2 58 -6 92 -6c48 0 82 4 120 6c0 -10 -2 -27 -7 -27c-7 0 -62 -12 -81 -31c-13 -13 -225 -285 -231 -315l-28 -146c-7 -35 -11 -61 -11 -90c0 -19 54 -25 54 -25c1 0 2 -1 2 -4c0 -7 -4 -19 -6 -23
c-37 2 -63 5 -104 5c-43 0 -68 -3 -111 -5c-1 1 -1 4 -1 7c0 8 3 20 7 20c11 0 57 10 64 22c11 19 18 52 25 90l23 125c1 8 3 16 3 22c0 3 0 5 -1 7l-83 255c-11 37 -23 52 -39 64c-14 10 -45 22 -56 22c-2 0 -2 2 -2 5c0 7 3 19 7 22c45 -2 71 -6 117 -6z" />
    <glyph glyph-name="Thorn" unicode="&#xde;" horiz-adv-x="515" 
d="M389 511c76 0 181 -46 154 -183c-14 -74 -99 -200 -229 -200c-21 0 -55 5 -66 28c-2 4 1 28 5 26c26 -11 34 -11 60 -11c61 0 126 65 141 142c17 89 -3 154 -88 154c-22 0 -52 -2 -66 -7c-9 -3 -15 -14 -19 -37l-55 -284c-7 -36 -11 -66 -10 -93c1 -11 49 -20 56 -20
c3 0 2 -9 1 -15c-1 -5 -3 -11 -5 -14c-37 2 -66 5 -107 5c-43 0 -69 -3 -112 -5c-1 2 -2 9 -1 15s4 14 6 14c11 0 59 8 66 20c10 23 21 71 24 89l76 388c3 18 11 66 10 89c-2 12 -47 21 -58 21c-2 0 -2 7 -1 13s5 14 7 16c42 -2 68 -5 111 -5c41 0 70 3 108 5
c0 -3 0 -10 -1 -15c-1 -6 -3 -14 -6 -14c-7 0 -59 -10 -64 -21c-10 -23 -19 -57 -25 -88c-2 -9 -3 -16 -4 -20c-1 -5 0 -7 2 -7c7 0 35 14 90 14z" />
    <glyph glyph-name="germandbls" unicode="&#xdf;" horiz-adv-x="495" 
d="M164 407c18 0 21 287 201 287c72 0 155 -34 155 -113c0 -88 -86 -140 -121 -162c-31 -20 -70 -31 -70 -67c0 -27 31 -49 58 -72c54 -47 93 -70 93 -133c0 -79 -61 -147 -140 -147c-60 0 -107 25 -112 42c5 32 16 58 44 58c29 0 26 -68 71 -68c60 0 72 70 72 93
c0 47 -45 77 -75 104c-33 29 -68 49 -68 95c0 45 23 61 90 111c67 51 82 115 82 154c0 45 -35 67 -88 67c-73 0 -109 -182 -109 -182l-82 -428c-38 -200 -90 -280 -172 -280c-53 0 -77 26 -83 43c4 32 16 58 39 58c28 0 19 -62 63 -62c43 0 64 121 80 204l65 345v2
c0 3 -1 5 -3 5h-65c-1 0 -2 1 -2 3c0 10 25 43 48 43h29z" />
    <glyph glyph-name="agrave" unicode="&#xe0;" horiz-adv-x="445" 
d="M359 496c-15 0 -164 84 -164 116c0 23 36 28 49 28c9 0 17 -2 20 -5c11 -12 108 -113 108 -121s-8 -18 -13 -18zM359 435c35 0 54 -6 73 -13l-61 -316c-1 -4 -3 -20 -3 -25c0 -9 0 -25 10 -25c21 0 63 52 66 55c3 0 13 -17 13 -23c-11 -19 -79 -94 -126 -94
c-21 0 -34 22 -34 52c0 8 3 32 7 53c4 19 4 19 5 26c-21 -36 -83 -130 -141 -130c-62 0 -95 65 -95 135c0 146 149 305 286 305zM317 389c-77 0 -170 -123 -170 -238c0 -62 16 -98 51 -98c50 0 121 125 140 221l20 102c-9 10 -28 13 -41 13z" />
    <glyph glyph-name="aacute" unicode="&#xe1;" horiz-adv-x="445" 
d="M275 496c-2 0 -7 6 -7 12c0 8 72 93 115 126c5 3 16 5 26 5c16 0 39 -4 39 -24c0 -35 -165 -119 -173 -119zM359 435c35 0 54 -6 73 -13l-61 -316c-1 -4 -3 -20 -3 -25c0 -9 0 -25 10 -25c21 0 63 52 66 55c3 0 13 -17 13 -23c-11 -19 -79 -94 -126 -94
c-21 0 -34 22 -34 52c0 8 3 32 7 53c4 19 4 19 5 26c-21 -36 -83 -130 -141 -130c-62 0 -95 65 -95 135c0 146 149 305 286 305zM317 389c-77 0 -170 -123 -170 -238c0 -62 16 -98 51 -98c50 0 121 125 140 221l20 102c-9 10 -28 13 -41 13z" />
    <glyph glyph-name="acircumflex" unicode="&#xe2;" horiz-adv-x="445" 
d="M420 496c-11 0 -61 37 -86 58c-33 -23 -96 -58 -107 -58c-7 0 -7 16 -6 20c6 6 34 28 62 51c21 17 42 36 54 51c6 6 7 9 11 9c3 0 5 -3 9 -9c5 -8 12 -22 28 -44c22 -29 48 -55 48 -58c-2 -8 -7 -20 -13 -20zM359 435c35 0 54 -6 73 -13l-61 -316c-1 -4 -3 -20 -3 -25
c0 -9 0 -25 10 -25c21 0 63 52 66 55c3 0 13 -17 13 -23c-11 -19 -79 -94 -126 -94c-21 0 -34 22 -34 52c0 8 3 32 7 53c4 19 4 19 5 26c-21 -36 -83 -130 -141 -130c-62 0 -95 65 -95 135c0 146 149 305 286 305zM317 389c-77 0 -170 -123 -170 -238c0 -62 16 -98 51 -98
c50 0 121 125 140 221l20 102c-9 10 -28 13 -41 13z" />
    <glyph glyph-name="atilde" unicode="&#xe3;" horiz-adv-x="445" 
d="M271 600c55 0 77 -53 132 -53c23 0 56 44 60 44c3 0 4 -4 4 -9c0 -23 -35 -86 -90 -86c-56 0 -77 53 -133 53c-23 0 -55 -44 -61 -44c-4 0 -5 2 -5 6c0 29 41 89 93 89zM359 435c35 0 54 -6 73 -13l-61 -316c-1 -4 -3 -20 -3 -25c0 -9 0 -25 10 -25c21 0 63 52 66 55
c3 0 13 -17 13 -23c-11 -19 -79 -94 -126 -94c-21 0 -34 22 -34 52c0 8 3 32 7 53c4 19 4 19 5 26c-21 -36 -83 -130 -141 -130c-62 0 -95 65 -95 135c0 146 149 305 286 305zM317 389c-77 0 -170 -123 -170 -238c0 -62 16 -98 51 -98c50 0 121 125 140 221l20 102
c-9 10 -28 13 -41 13z" />
    <glyph glyph-name="adieresis" unicode="&#xe4;" horiz-adv-x="445" 
d="M408 607c21 0 37 -19 37 -40c0 -31 -23 -60 -54 -60c-22 0 -34 22 -34 44c0 30 21 56 51 56zM239 607c21 0 37 -19 37 -40c0 -31 -23 -60 -54 -60c-22 0 -34 22 -34 44c0 30 21 56 51 56zM359 435c35 0 54 -6 73 -13l-61 -316c-1 -4 -3 -20 -3 -25c0 -9 0 -25 10 -25
c21 0 63 52 66 55c3 0 13 -17 13 -23c-11 -19 -79 -94 -126 -94c-21 0 -34 22 -34 52c0 8 3 32 7 53c4 19 4 19 5 26c-21 -36 -83 -130 -141 -130c-62 0 -95 65 -95 135c0 146 149 305 286 305zM317 389c-77 0 -170 -123 -170 -238c0 -62 16 -98 51 -98
c50 0 121 125 140 221l20 102c-9 10 -28 13 -41 13z" />
    <glyph glyph-name="aring" unicode="&#xe5;" horiz-adv-x="445" 
d="M281 586c-6 -31 12 -56 40 -56s56 25 62 56s-12 55 -40 55s-56 -24 -62 -55zM250 586c10 49 55 89 100 89s73 -40 63 -89s-53 -90 -98 -90s-75 41 -65 90zM359 435c35 0 54 -6 73 -13l-61 -316c-1 -4 -3 -20 -3 -25c0 -9 0 -25 10 -25c21 0 63 52 66 55
c3 0 13 -17 13 -23c-11 -19 -79 -94 -126 -94c-21 0 -34 22 -34 52c0 8 3 32 7 53c4 19 4 19 5 26c-21 -36 -83 -130 -141 -130c-62 0 -95 65 -95 135c0 146 149 305 286 305zM317 389c-77 0 -170 -123 -170 -238c0 -62 16 -98 51 -98c50 0 121 125 140 221l20 102
c-9 10 -28 13 -41 13z" />
    <glyph glyph-name="ae" unicode="&#xe6;" horiz-adv-x="560" 
d="M484 435c68 0 70 -60 70 -79c0 -84 -155 -153 -217 -153c-8 0 -11 -11 -11 -19c0 -93 37 -128 77 -128c45 0 89 68 93 68c1 0 9 -14 10 -22c-7 -20 -71 -106 -132 -106c-41 0 -88 35 -105 79c-18 -36 -59 -82 -131 -82c-42 0 -98 22 -98 72c0 117 149 163 217 176
c5 1 8 3 11 16l17 83c1 3 1 12 1 16c0 24 -23 42 -47 42c-34 0 -68 -33 -77 -82c-5 -27 -26 -34 -49 -34c-11 0 -26 0 -26 13c0 46 101 141 189 141c51 0 74 -20 78 -55c37 35 86 54 130 54zM248 145l8 46c-128 -24 -137 -81 -137 -101c0 -27 17 -50 43 -50
c53 0 79 68 86 105zM460 394c-59 0 -126 -90 -126 -139c0 -2 1 -6 7 -6c39 0 144 34 144 103c0 12 -3 42 -25 42z" />
    <glyph glyph-name="ccedilla" unicode="&#xe7;" horiz-adv-x="326" 
d="M163 1h19l-20 -23h22c21 0 33 -17 33 -38c0 -37 -37 -87 -104 -87c-11 0 -24 5 -29 9v9c0 15 12 19 15 19c11 0 17 -13 32 -13c27 0 48 17 48 41c0 19 -13 26 -24 26c-10 0 -15 -3 -25 -7c-2 0 -7 7 -7 11s17 20 40 53zM277 435c32 0 62 -13 87 -34c1 -5 3 -14 3 -20
c0 -24 -12 -43 -35 -43c-32 0 -33 56 -67 56c-51 0 -136 -98 -136 -232c0 -35 3 -106 66 -106c47 0 90 52 93 55c3 0 13 -17 13 -23c-11 -19 -76 -94 -139 -94c-71 0 -107 59 -107 152c0 127 119 289 222 289z" />
    <glyph glyph-name="egrave" unicode="&#xe8;" horiz-adv-x="332" 
d="M302 496c-15 0 -164 84 -164 116c0 23 36 28 49 28c9 0 17 -2 20 -5c11 -12 108 -113 108 -121s-8 -18 -13 -18zM285 435c68 0 87 -45 87 -75c0 -96 -168 -177 -230 -177c-4 0 -4 -30 -4 -35c0 -61 26 -92 65 -92c47 0 90 52 93 55c3 0 13 -17 13 -23
c-11 -19 -76 -94 -139 -94c-71 0 -107 59 -107 152c0 127 119 289 222 289zM275 394c-70 0 -130 -135 -130 -172c0 -2 1 -4 4 -4c39 0 151 72 151 146c0 12 -6 30 -25 30z" />
    <glyph glyph-name="eacute" unicode="&#xe9;" horiz-adv-x="332" 
d="M302 496c-2 0 -7 6 -7 12c0 8 72 93 115 126c5 3 16 5 26 5c16 0 39 -4 39 -24c0 -35 -165 -119 -173 -119zM285 435c68 0 87 -45 87 -75c0 -96 -168 -177 -230 -177c-4 0 -4 -30 -4 -35c0 -61 26 -92 65 -92c47 0 90 52 93 55c3 0 13 -17 13 -23
c-11 -19 -76 -94 -139 -94c-71 0 -107 59 -107 152c0 127 119 289 222 289zM275 394c-70 0 -130 -135 -130 -172c0 -2 1 -4 4 -4c39 0 151 72 151 146c0 12 -6 30 -25 30z" />
    <glyph glyph-name="ecircumflex" unicode="&#xea;" horiz-adv-x="332" 
d="M399 496c-11 0 -61 37 -86 58c-33 -23 -96 -58 -107 -58c-7 0 -7 16 -6 20c6 6 34 28 62 51c21 17 42 36 54 51c6 6 7 9 11 9c3 0 5 -3 9 -9c5 -8 12 -22 28 -44c22 -29 48 -55 48 -58c-2 -8 -7 -20 -13 -20zM285 435c68 0 87 -45 87 -75c0 -96 -168 -177 -230 -177
c-4 0 -4 -30 -4 -35c0 -61 26 -92 65 -92c47 0 90 52 93 55c3 0 13 -17 13 -23c-11 -19 -76 -94 -139 -94c-71 0 -107 59 -107 152c0 127 119 289 222 289zM275 394c-70 0 -130 -135 -130 -172c0 -2 1 -4 4 -4c39 0 151 72 151 146c0 12 -6 30 -25 30z" />
    <glyph glyph-name="edieresis" unicode="&#xeb;" horiz-adv-x="332" 
d="M355 607c21 0 37 -19 37 -40c0 -31 -23 -60 -54 -60c-22 0 -34 22 -34 44c0 30 21 56 51 56zM186 607c21 0 37 -19 37 -40c0 -31 -23 -60 -54 -60c-22 0 -34 22 -34 44c0 30 21 56 51 56zM285 435c68 0 87 -45 87 -75c0 -96 -168 -177 -230 -177c-4 0 -4 -30 -4 -35
c0 -61 26 -92 65 -92c47 0 90 52 93 55c3 0 13 -17 13 -23c-11 -19 -76 -94 -139 -94c-71 0 -107 59 -107 152c0 127 119 289 222 289zM275 394c-70 0 -130 -135 -130 -172c0 -2 1 -4 4 -4c39 0 151 72 151 146c0 12 -6 30 -25 30z" />
    <glyph glyph-name="igrave" unicode="&#xec;" horiz-adv-x="216" 
d="M172 496c-15 0 -164 84 -164 116c0 23 36 28 49 28c9 0 17 -2 20 -5c11 -12 108 -113 108 -121s-8 -18 -13 -18zM165 363c0 -45 -46 -246 -46 -274s11 -37 22 -37c21 0 61 73 65 73c1 0 9 -14 10 -22c-7 -20 -59 -109 -110 -109c-38 0 -56 26 -56 73c0 18 2 38 7 61
l36 180c1 7 3 23 3 28c0 22 -9 41 -28 41c-17 0 -55 -73 -59 -73c-1 0 -10 14 -11 22c7 20 59 109 110 109c38 0 57 -25 57 -72z" />
    <glyph glyph-name="iacute" unicode="&#xed;" horiz-adv-x="216" 
d="M74 496c-2 0 -7 6 -7 12c0 8 72 93 115 126c5 3 16 5 26 5c16 0 39 -4 39 -24c0 -35 -165 -119 -173 -119zM165 363c0 -45 -46 -246 -46 -274s11 -37 22 -37c21 0 61 73 65 73c1 0 9 -14 10 -22c-7 -20 -59 -109 -110 -109c-38 0 -56 26 -56 73c0 18 2 38 7 61l36 180
c1 7 3 23 3 28c0 22 -9 41 -28 41c-17 0 -55 -73 -59 -73c-1 0 -10 14 -11 22c7 20 59 109 110 109c38 0 57 -25 57 -72z" />
    <glyph glyph-name="icircumflex" unicode="&#xee;" horiz-adv-x="216" 
d="M227 496c-11 0 -61 37 -86 58c-33 -23 -96 -58 -107 -58c-7 0 -7 16 -6 20c6 6 34 28 62 51c21 17 42 36 54 51c6 6 7 9 11 9c3 0 5 -3 9 -9c5 -8 12 -22 28 -44c22 -29 48 -55 48 -58c-2 -8 -7 -20 -13 -20zM165 363c0 -45 -46 -246 -46 -274s11 -37 22 -37
c21 0 61 73 65 73c1 0 9 -14 10 -22c-7 -20 -59 -109 -110 -109c-38 0 -56 26 -56 73c0 18 2 38 7 61l36 180c1 7 3 23 3 28c0 22 -9 41 -28 41c-17 0 -55 -73 -59 -73c-1 0 -10 14 -11 22c7 20 59 109 110 109c38 0 57 -25 57 -72z" />
    <glyph glyph-name="idieresis" unicode="&#xef;" horiz-adv-x="216" 
d="M227 607c21 0 37 -19 37 -40c0 -31 -23 -60 -54 -60c-22 0 -34 22 -34 44c0 30 21 56 51 56zM94 607c21 0 37 -19 37 -40c0 -31 -23 -60 -54 -60c-22 0 -34 22 -34 44c0 30 21 56 51 56zM165 363c0 -45 -46 -246 -46 -274s11 -37 22 -37c21 0 61 73 65 73
c1 0 9 -14 10 -22c-7 -20 -59 -109 -110 -109c-38 0 -56 26 -56 73c0 18 2 38 7 61l36 180c1 7 3 23 3 28c0 22 -9 41 -28 41c-17 0 -55 -73 -59 -73c-1 0 -10 14 -11 22c7 20 59 109 110 109c38 0 57 -25 57 -72z" />
    <glyph glyph-name="eth" unicode="&#xf0;" horiz-adv-x="384" 
d="M194 509c-4 7 -14 27 -9 32l250 164c4 -6 15 -26 10 -31zM182 664c1 7 11 24 18 24c140 -39 261 -192 213 -438c-29 -148 -113 -257 -203 -257c-122 0 -159 114 -138 224c21 108 107 221 213 221c33 0 58 -14 68 -31c2 80 -26 181 -171 257zM334 217c11 55 7 98 2 115
c-11 35 -30 66 -69 66c-60 0 -99 -82 -117 -174c-19 -98 8 -192 61 -192c68 0 104 87 123 185z" />
    <glyph glyph-name="ntilde" unicode="&#xf1;" horiz-adv-x="492" 
d="M282 600c55 0 77 -53 132 -53c23 0 56 44 60 44c3 0 4 -4 4 -9c0 -23 -35 -86 -90 -86c-56 0 -77 53 -133 53c-23 0 -55 -44 -61 -44c-4 0 -5 2 -5 6c0 29 41 89 93 89zM210 238c13 25 138 197 204 197c39 0 50 -28 50 -66c0 -37 -5 -68 -14 -109l-33 -154
c-1 -4 -3 -20 -3 -25c0 -9 0 -25 10 -25c21 0 63 52 66 55c3 0 13 -17 13 -23c-11 -19 -79 -94 -126 -94c-21 0 -34 22 -34 52c0 8 3 32 7 53l35 165c2 9 7 43 7 54c0 23 -2 43 -19 43c-36 0 -163 -133 -192 -283l-17 -78c-10 -3 -21 -4 -31 -4s-22 1 -34 4l59 308
c1 7 5 35 5 40c0 9 0 25 -10 25c-16 0 -52 -44 -55 -47c-3 0 -13 17 -13 23c11 19 76 86 115 86c21 0 34 -22 34 -52c0 -8 -2 -33 -6 -53z" />
    <glyph glyph-name="ograve" unicode="&#xf2;" horiz-adv-x="398" 
d="M305 496c-15 0 -164 84 -164 116c0 23 36 28 49 28c9 0 17 -2 20 -5c11 -12 108 -113 108 -121s-8 -18 -13 -18zM153 158c0 -80 29 -122 65 -122c70 0 127 137 127 237c0 80 -24 121 -60 121c-70 0 -132 -136 -132 -236zM77 145c0 140 120 290 220 290
c80 0 124 -59 124 -154c0 -140 -121 -286 -221 -286c-80 0 -123 55 -123 150z" />
    <glyph glyph-name="oacute" unicode="&#xf3;" horiz-adv-x="398" 
d="M247 496c-2 0 -7 6 -7 12c0 8 72 93 115 126c5 3 16 5 26 5c16 0 39 -4 39 -24c0 -35 -165 -119 -173 -119zM153 158c0 -80 29 -122 65 -122c70 0 127 137 127 237c0 80 -24 121 -60 121c-70 0 -132 -136 -132 -236zM77 145c0 140 120 290 220 290c80 0 124 -59 124 -154
c0 -140 -121 -286 -221 -286c-80 0 -123 55 -123 150z" />
    <glyph glyph-name="ocircumflex" unicode="&#xf4;" horiz-adv-x="398" 
d="M402 496c-11 0 -61 37 -86 58c-33 -23 -96 -58 -107 -58c-7 0 -7 16 -6 20c6 6 34 28 62 51c21 17 42 36 54 51c6 6 7 9 11 9c3 0 5 -3 9 -9c5 -8 12 -22 28 -44c22 -29 48 -55 48 -58c-2 -8 -7 -20 -13 -20zM153 158c0 -80 29 -122 65 -122c70 0 127 137 127 237
c0 80 -24 121 -60 121c-70 0 -132 -136 -132 -236zM77 145c0 140 120 290 220 290c80 0 124 -59 124 -154c0 -140 -121 -286 -221 -286c-80 0 -123 55 -123 150z" />
    <glyph glyph-name="otilde" unicode="&#xf5;" horiz-adv-x="398" 
d="M241 600c55 0 77 -53 132 -53c23 0 56 44 60 44c3 0 4 -4 4 -9c0 -23 -35 -86 -90 -86c-56 0 -77 53 -133 53c-23 0 -55 -44 -61 -44c-4 0 -5 2 -5 6c0 29 41 89 93 89zM153 158c0 -80 29 -122 65 -122c70 0 127 137 127 237c0 80 -24 121 -60 121
c-70 0 -132 -136 -132 -236zM77 145c0 140 120 290 220 290c80 0 124 -59 124 -154c0 -140 -121 -286 -221 -286c-80 0 -123 55 -123 150z" />
    <glyph glyph-name="odieresis" unicode="&#xf6;" horiz-adv-x="398" 
d="M394 607c21 0 37 -19 37 -40c0 -31 -23 -60 -54 -60c-22 0 -34 22 -34 44c0 30 21 56 51 56zM225 607c21 0 37 -19 37 -40c0 -31 -23 -60 -54 -60c-22 0 -34 22 -34 44c0 30 21 56 51 56zM153 158c0 -80 29 -122 65 -122c70 0 127 137 127 237c0 80 -24 121 -60 121
c-70 0 -132 -136 -132 -236zM77 145c0 140 120 290 220 290c80 0 124 -59 124 -154c0 -140 -121 -286 -221 -286c-80 0 -123 55 -123 150z" />
    <glyph glyph-name="divide" unicode="&#xf7;" horiz-adv-x="458" 
d="M273 490c21 0 37 -19 37 -40c0 -31 -23 -60 -54 -60c-22 0 -34 22 -34 44c0 30 21 56 51 56zM199 104c21 0 36 -19 36 -40c0 -31 -22 -60 -53 -60c-22 0 -34 22 -34 44c0 30 21 56 51 56zM22 278h430c3 0 4 -3 4 -9c0 -14 -9 -41 -21 -54h-430c-3 0 -5 3 -5 9
c0 14 11 40 22 54z" />
    <glyph glyph-name="oslash" unicode="&#xf8;" horiz-adv-x="391" 
d="M97 0c-6 3 -23 14 -19 20l308 399c6 -3 23 -13 19 -19zM143 172c0 -80 28 -138 72 -138c72 0 118 132 118 225c0 79 -29 138 -72 138c-72 0 -118 -132 -118 -225zM69 163c0 143 107 272 209 272c78 0 129 -70 129 -168c0 -143 -106 -272 -208 -272
c-78 0 -130 70 -130 168z" />
    <glyph glyph-name="ugrave" unicode="&#xf9;" horiz-adv-x="472" 
d="M311 496c-15 0 -164 84 -164 116c0 23 36 28 49 28c9 0 17 -2 20 -5c11 -12 108 -113 108 -121s-8 -18 -13 -18zM399 106c-1 -4 -3 -20 -3 -25c0 -9 0 -25 10 -25c21 0 63 52 66 55c3 0 13 -17 13 -23c-11 -19 -79 -94 -126 -94c-21 0 -34 22 -34 52c0 8 3 32 7 53l18 92
c-13 -25 -130 -197 -196 -197c-39 0 -50 28 -50 66c0 37 5 68 14 109l30 139c1 7 5 35 5 40c0 9 0 25 -10 25c-16 0 -52 -44 -55 -47c-3 0 -13 17 -13 23c11 19 76 86 115 86c21 0 34 -22 34 -52c0 -8 -1 -32 -6 -53l-35 -165c-2 -9 -7 -43 -7 -54c0 -23 2 -43 19 -43
c36 0 155 133 184 283l17 78c10 3 21 4 31 4s22 -1 34 -4z" />
    <glyph glyph-name="uacute" unicode="&#xfa;" horiz-adv-x="472" 
d="M263 496c-2 0 -7 6 -7 12c0 8 72 93 115 126c5 3 16 5 26 5c16 0 39 -4 39 -24c0 -35 -165 -119 -173 -119zM399 106c-1 -4 -3 -20 -3 -25c0 -9 0 -25 10 -25c21 0 63 52 66 55c3 0 13 -17 13 -23c-11 -19 -79 -94 -126 -94c-21 0 -34 22 -34 52c0 8 3 32 7 53l18 92
c-13 -25 -130 -197 -196 -197c-39 0 -50 28 -50 66c0 37 5 68 14 109l30 139c1 7 5 35 5 40c0 9 0 25 -10 25c-16 0 -52 -44 -55 -47c-3 0 -13 17 -13 23c11 19 76 86 115 86c21 0 34 -22 34 -52c0 -8 -1 -32 -6 -53l-35 -165c-2 -9 -7 -43 -7 -54c0 -23 2 -43 19 -43
c36 0 155 133 184 283l17 78c10 3 21 4 31 4s22 -1 34 -4z" />
    <glyph glyph-name="ucircumflex" unicode="&#xfb;" horiz-adv-x="472" 
d="M366 496c-11 0 -61 37 -86 58c-33 -23 -96 -58 -107 -58c-7 0 -7 16 -6 20c6 6 34 28 62 51c21 17 42 36 54 51c6 6 7 9 11 9c3 0 5 -3 9 -9c5 -8 12 -22 28 -44c22 -29 48 -55 48 -58c-2 -8 -7 -20 -13 -20zM399 106c-1 -4 -3 -20 -3 -25c0 -9 0 -25 10 -25
c21 0 63 52 66 55c3 0 13 -17 13 -23c-11 -19 -79 -94 -126 -94c-21 0 -34 22 -34 52c0 8 3 32 7 53l18 92c-13 -25 -130 -197 -196 -197c-39 0 -50 28 -50 66c0 37 5 68 14 109l30 139c1 7 5 35 5 40c0 9 0 25 -10 25c-16 0 -52 -44 -55 -47c-3 0 -13 17 -13 23
c11 19 76 86 115 86c21 0 34 -22 34 -52c0 -8 -1 -32 -6 -53l-35 -165c-2 -9 -7 -43 -7 -54c0 -23 2 -43 19 -43c36 0 155 133 184 283l17 78c10 3 21 4 31 4s22 -1 34 -4z" />
    <glyph glyph-name="udieresis" unicode="&#xfc;" horiz-adv-x="472" 
d="M404 607c21 0 37 -19 37 -40c0 -31 -23 -60 -54 -60c-22 0 -34 22 -34 44c0 30 21 56 51 56zM235 607c21 0 37 -19 37 -40c0 -31 -23 -60 -54 -60c-22 0 -34 22 -34 44c0 30 21 56 51 56zM399 106c-1 -4 -3 -20 -3 -25c0 -9 0 -25 10 -25c21 0 63 52 66 55
c3 0 13 -17 13 -23c-11 -19 -79 -94 -126 -94c-21 0 -34 22 -34 52c0 8 3 32 7 53l18 92c-13 -25 -130 -197 -196 -197c-39 0 -50 28 -50 66c0 37 5 68 14 109l30 139c1 7 5 35 5 40c0 9 0 25 -10 25c-16 0 -52 -44 -55 -47c-3 0 -13 17 -13 23c11 19 76 86 115 86
c21 0 34 -22 34 -52c0 -8 -1 -32 -6 -53l-35 -165c-2 -9 -7 -43 -7 -54c0 -23 2 -43 19 -43c36 0 155 133 184 283l17 78c10 3 21 4 31 4s22 -1 34 -4z" />
    <glyph glyph-name="yacute" unicode="&#xfd;" horiz-adv-x="460" 
d="M316 496c-2 0 -7 6 -7 12c0 8 72 93 115 126c5 3 16 5 26 5c16 0 39 -4 39 -24c0 -35 -165 -119 -173 -119zM206 435c86 0 87 -346 87 -407c36 44 117 166 117 257c0 61 -14 86 -25 107c8 26 26 43 50 43c42 0 44 -57 44 -79c0 -234 -321 -589 -456 -589
c-36 0 -60 19 -60 41c0 17 8 36 23 44c15 -9 45 -13 67 -13c62 0 111 41 144 89c23 34 23 91 23 134c0 114 -11 311 -60 311c-14 0 -46 -35 -55 -47c-3 0 -13 17 -13 23c6 15 77 86 114 86z" />
    <glyph glyph-name="thorn" unicode="&#xfe;" horiz-adv-x="473" 
d="M227 393c0 0 65 44 102 45c99 0 141 -67 141 -149c0 -132 -106 -304 -247 -304c-44 0 -58 8 -71 15c0 0 -2 -4 -4 -12l-15 -75c-6 -31 -13 -59 -13 -85v-5c0 -11 35 -22 42 -22c1 0 1 -2 1 -4c0 -7 -3 -20 -5 -24c-34 2 -51 6 -85 6c-36 0 -55 -4 -91 -6c1 5 5 28 5 28
c10 0 47 11 52 22c13 31 19 55 26 90l121 626c2 11 10 49 10 77c-1 21 -54 13 -54 18c0 2 1 4 2 6c0 2 5 16 9 16c47 5 97 18 128 38h2c5 0 9 -11 9 -16c0 0 -18 -32 -28 -87l-37 -192c0 -1 -1 -3 -1 -5c0 -1 0 -1 1 -1zM252 27c88 0 134 155 134 238c0 81 -42 116 -108 116
c-28 0 -59 -21 -65 -55l-46 -239c-1 -3 -1 -5 -1 -8c0 -34 46 -52 86 -52z" />
    <glyph glyph-name="ydieresis" unicode="&#xff;" horiz-adv-x="460" 
d="M393 607c21 0 37 -19 37 -40c0 -31 -23 -60 -54 -60c-22 0 -34 22 -34 44c0 30 21 56 51 56zM224 607c21 0 37 -19 37 -40c0 -31 -23 -60 -54 -60c-22 0 -34 22 -34 44c0 30 21 56 51 56zM206 435c86 0 87 -346 87 -407c36 44 117 166 117 257c0 61 -14 86 -25 107
c8 26 26 43 50 43c42 0 44 -57 44 -79c0 -234 -321 -589 -456 -589c-36 0 -60 19 -60 41c0 17 8 36 23 44c15 -9 45 -13 67 -13c62 0 111 41 144 89c23 34 23 91 23 134c0 114 -11 311 -60 311c-14 0 -46 -35 -55 -47c-3 0 -13 17 -13 23c6 15 77 86 114 86z" />
    <glyph glyph-name="Idotaccent" unicode="&#x130;" horiz-adv-x="263" 
d="M237 778c5 28 31 50 57 50s41 -22 36 -50s-30 -50 -56 -50s-42 22 -37 50zM272 515l-71 -376c-7 -35 -11 -61 -11 -90c0 -19 54 -25 54 -25c1 0 2 -2 2 -4c0 -6 -4 -19 -6 -23c-37 2 -63 5 -104 5c-43 0 -67 -3 -110 -5c-1 1 -2 5 -2 8c0 8 3 19 7 19c11 0 58 9 64 22
c12 28 19 58 26 96l71 370c7 35 11 56 11 92c0 17 -45 27 -56 27c-1 0 -2 2 -2 5c0 7 4 18 8 22c42 -2 65 -6 108 -6c41 0 68 4 106 6v-3c0 -8 -3 -24 -7 -24c-7 0 -57 -12 -62 -23c-12 -27 -20 -64 -26 -93z" />
    <glyph glyph-name="ohungarumlaut" unicode="&#x151;" horiz-adv-x="398" 
d="M359 496c-2 0 -7 6 -7 12c0 8 72 93 115 126c5 3 16 5 26 5c16 0 39 -4 39 -24c0 -35 -165 -119 -173 -119zM231 496c-2 0 -7 6 -7 12c0 8 72 93 115 126c5 3 16 5 26 5c16 0 39 -4 39 -24c0 -35 -165 -119 -173 -119zM153 158c0 -80 29 -122 65 -122
c70 0 127 137 127 237c0 80 -24 121 -60 121c-70 0 -132 -136 -132 -236zM77 145c0 140 120 290 220 290c80 0 124 -59 124 -154c0 -140 -121 -286 -221 -286c-80 0 -123 55 -123 150z" />
    <glyph glyph-name="OE" unicode="&#x152;" horiz-adv-x="935" 
d="M529 3c-27 0 -61 1 -107 -2c-59 -4 -120 -11 -154 -11c-145 0 -236 118 -236 269c0 215 190 408 372 408c73 0 190 -11 251 -11c86 0 192 8 293 8c-1 -14 -1 -26 -1 -39c0 -33 2 -64 2 -97c-3 -3 -11 -5 -18 -5c-6 0 -12 2 -12 7c-4 81 -42 86 -99 86h-54
c-36 0 -71 -1 -76 -13c-10 -27 -13 -40 -18 -67l-32 -175c-1 -7 18 -8 37 -8h45c89 0 90 2 121 71c2 5 8 7 14 7s13 -2 15 -5l-37 -192c-3 -2 -8 -4 -14 -4c-7 0 -13 2 -14 8c-3 57 -8 57 -15 63c-9 7 -62 8 -97 8c-26 0 -66 0 -68 -9l-29 -148c-7 -34 -11 -56 -11 -87
c0 -20 0 -21 61 -21h45c35 0 91 2 121 17c20 10 52 48 78 101c2 4 8 6 15 6c9 0 19 -3 21 -6c-29 -54 -67 -122 -82 -166c-101 0 -233 7 -317 7zM381 625c-150 0 -258 -186 -258 -358c0 -130 58 -234 171 -234c74 0 122 4 180 57c42 38 69 195 86 282c12 64 35 164 0 212
c-34 46 -124 41 -179 41z" />
    <glyph glyph-name="oe" unicode="&#x153;" horiz-adv-x="587" 
d="M232 396c-71 0 -130 -130 -130 -226c0 -58 8 -135 65 -135c65 0 125 129 125 231c0 56 -3 130 -60 130zM492 396c-65 0 -130 -135 -130 -172c0 -2 1 -6 7 -6c39 0 144 65 144 134c0 12 1 44 -21 44zM512 435c68 0 70 -60 70 -79c0 -84 -161 -173 -223 -173
c-4 0 -4 -4 -4 -9c0 -93 36 -118 76 -118c45 0 89 68 93 68c1 0 9 -14 10 -22c-7 -20 -71 -106 -132 -106c-44 0 -86 31 -107 83c-42 -52 -98 -84 -154 -84c-80 0 -114 83 -114 163c0 134 109 277 224 277c55 0 89 -39 105 -90c43 53 99 90 156 90z" />
    <glyph glyph-name="Racute" unicode="&#x154;" horiz-adv-x="593" 
d="M286 711c-3 0 -13 3 -13 10c0 8 70 67 99 86c3 1 10 2 17 2c38 0 58 -13 58 -24c0 -26 -144 -74 -161 -74zM389 658c69 0 179 -29 179 -136c0 -111 -123 -178 -161 -195c-5 -2 -7 -7 -5 -12c27 -91 73 -196 102 -241c32 -50 61 -45 86 -45c2 -5 6 -21 1 -28
c-10 -2 -36 -5 -58 -5c-91 0 -136 82 -207 301c-4 12 -25 14 -44 14c-39 0 -48 0 -52 -17l-29 -155c-7 -35 -11 -61 -11 -90c0 -19 54 -25 54 -25c1 0 2 -2 2 -4c0 -6 -4 -19 -6 -23c-37 2 -63 5 -104 5c-43 0 -67 -3 -110 -5c-1 1 -2 5 -2 8c0 8 3 19 7 19c11 0 58 9 64 22
c12 28 18 58 26 96l82 414c4 21 5 36 5 50c0 18 -42 25 -53 25c-2 0 -2 3 -2 7c0 7 3 17 7 20c0 0 43 -3 104 -3c56 0 70 3 125 3zM373 621c-67 0 -77 -2 -80 -19l-48 -233v-2c0 -12 29 -15 47 -15c88 0 191 54 191 175c0 66 -40 94 -110 94z" />
    <glyph glyph-name="Scaron" unicode="&#x160;" horiz-adv-x="435" 
d="M369 800c33 21 98 58 109 58c6 0 6 -12 4 -20c-2 -3 -34 -25 -68 -54c-17 -15 -34 -32 -48 -48c-4 -5 -6 -8 -11 -8c-4 0 -5 2 -8 8c-8 17 -19 32 -30 46c-20 26 -40 47 -46 56c1 4 6 20 13 20c11 0 61 -35 85 -58zM355 172c0 111 -233 152 -233 286
c0 122 102 208 224 208c48 0 82 -20 129 -24c-19 -150 -15 -150 -22 -150c-4 0 -16 1 -23 6c-3 2 -2 7 -2 12c0 64 -49 113 -101 113c-78 0 -127 -54 -127 -121c0 -35 16 -66 49 -92c88 -69 192 -113 192 -211c0 -80 -79 -205 -233 -205c-61 0 -111 13 -159 24
c2 32 4 49 4 81c0 30 -2 67 -2 77c0 5 11 7 19 7s14 -4 19 -8c0 -46 16 -140 128 -140c63 0 138 45 138 137z" />
    <glyph glyph-name="scaron" unicode="&#x161;" horiz-adv-x="320" 
d="M283 581c30 24 89 66 99 66c5 0 5 -14 3 -23c-2 -3 -32 -28 -63 -61c-15 -17 -30 -37 -44 -55c-4 -6 -6 -9 -10 -9c-3 0 -5 2 -7 9c-7 19 -15 36 -24 52c-16 30 -33 54 -38 64c1 5 7 23 13 23c10 0 51 -40 71 -66zM261 438c40 0 69 -14 90 -38c3 -7 5 -14 5 -21
c0 -23 -14 -44 -34 -44c-35 0 -33 59 -96 59c-30 0 -45 -25 -45 -46c0 -80 124 -131 124 -231c0 -74 -59 -123 -143 -123c-40 0 -69 14 -90 38c-3 5 -5 13 -5 19c0 23 14 46 34 46c35 0 33 -59 96 -59c31 0 49 25 49 46c0 80 -124 131 -124 231c0 51 55 123 139 123z" />
    <glyph glyph-name="Ydieresis" unicode="&#x178;" horiz-adv-x="593" 
d="M476 778c5 28 30 50 56 50s42 -22 37 -50s-30 -50 -56 -50s-42 22 -37 50zM308 778c5 28 30 50 56 50s42 -22 37 -50s-31 -50 -57 -50s-41 22 -36 50zM244 652c46 0 86 4 124 6v-5c0 -8 -3 -22 -7 -22c-9 0 -63 -9 -63 -42c0 -6 1 -13 4 -22l65 -208c1 -2 2 -3 3 -3
c2 0 6 3 7 5c0 0 171 214 171 239c0 18 -37 31 -62 31c-2 0 -2 2 -2 6c0 7 3 18 7 21c34 -2 58 -6 92 -6c48 0 82 4 120 6c0 -10 -2 -27 -7 -27c-7 0 -62 -12 -81 -31c-13 -13 -225 -285 -231 -315l-28 -146c-7 -35 -11 -61 -11 -90c0 -19 54 -25 54 -25c1 0 2 -1 2 -4
c0 -7 -4 -19 -6 -23c-37 2 -63 5 -104 5c-43 0 -68 -3 -111 -5c-1 1 -1 4 -1 7c0 8 3 20 7 20c11 0 57 10 64 22c11 19 18 52 25 90l23 125c1 8 3 16 3 22c0 3 0 5 -1 7l-83 255c-11 37 -23 52 -39 64c-14 10 -45 22 -56 22c-2 0 -2 2 -2 5c0 7 3 19 7 22
c45 -2 71 -6 117 -6z" />
    <glyph glyph-name="zdotaccent" unicode="&#x17c;" horiz-adv-x="404" 
d="M286 596c5 28 31 50 57 50s41 -22 36 -50s-30 -50 -56 -50s-42 22 -37 50zM205 435c28 0 92 -25 151 -25c27 0 39 25 66 25c10 0 12 -14 12 -25c0 -14 -299 -329 -299 -331s26 18 41 18c51 0 93 -36 126 -36c28 0 57 59 63 68c6 7 13 -11 14 -19
c-6 -20 -54 -110 -100 -110c-28 0 -92 26 -151 26c-27 0 -39 -26 -66 -26c-10 0 -12 15 -12 26c0 15 298 329 298 331c0 1 -25 -19 -40 -19c-51 0 -93 36 -126 36c-28 0 -56 -59 -62 -68c-7 -8 -13 11 -14 20c6 20 53 109 99 109z" />
    <glyph glyph-name="Zcaron" unicode="&#x17d;" horiz-adv-x="546" 
d="M432 800c33 21 98 58 109 58c6 0 6 -12 4 -20c-2 -3 -34 -25 -68 -54c-17 -15 -34 -32 -48 -48c-4 -5 -6 -8 -11 -8c-4 0 -5 2 -8 8c-8 17 -19 32 -30 46c-20 26 -40 47 -46 56c1 4 6 20 13 20c11 0 61 -35 85 -58zM323 656c46 -1 81 -1 108 -1c95 0 98 4 191 11
c3 -1 4 -10 4 -20c0 -5 0 -10 -1 -13c-3 -8 -456 -557 -456 -557c-6 -7 -8 -13 -8 -17c0 -6 4 -8 10 -8h210c100 0 122 70 136 101c2 6 19 8 27 8c7 0 12 -3 14 -6c-32 -78 -42 -107 -57 -154h-461c-3 5 -4 11 -4 17c0 10 3 20 8 26l466 565h-43c-56 0 -155 -1 -158 -1
c-92 -1 -114 -40 -152 -123c-2 -3 -5 -4 -10 -4c-10 0 -24 6 -27 9c18 50 36 111 56 176c14 -4 134 -9 147 -9z" />
    <glyph glyph-name="zcaron" unicode="&#x17e;" horiz-adv-x="404" 
d="M314 578c30 24 89 66 99 66c5 0 5 -14 3 -23c-2 -3 -32 -28 -63 -61c-15 -17 -30 -37 -44 -55c-4 -6 -6 -9 -10 -9c-3 0 -5 2 -7 9c-7 19 -15 36 -24 52c-16 30 -33 54 -38 64c1 5 7 23 13 23c10 0 51 -40 71 -66zM205 435c28 0 92 -25 151 -25c27 0 39 25 66 25
c10 0 12 -14 12 -25c0 -14 -299 -329 -299 -331s26 18 41 18c51 0 93 -36 126 -36c28 0 57 59 63 68c6 7 13 -11 14 -19c-6 -20 -54 -110 -100 -110c-28 0 -92 26 -151 26c-27 0 -39 -26 -66 -26c-10 0 -12 15 -12 26c0 15 298 329 298 331c0 1 -25 -19 -40 -19
c-51 0 -93 36 -126 36c-28 0 -56 -59 -62 -68c-7 -8 -13 11 -14 20c6 20 53 109 99 109z" />
    <glyph glyph-name="circumflex" unicode="&#x2c6;" horiz-adv-x="460" 
d="M897 706c-11 0 -61 37 -86 58c-33 -23 -96 -58 -107 -58c-7 0 -7 16 -6 20c6 6 34 28 62 51c21 17 42 36 54 51c6 6 7 9 11 9c3 0 5 -3 9 -9c5 -8 12 -22 28 -44c22 -29 48 -55 48 -58c-2 -8 -7 -20 -13 -20z" />
    <glyph glyph-name="tilde" unicode="&#x2dc;" horiz-adv-x="460" 
d="M722 818c55 0 77 -53 132 -53c23 0 56 44 60 44c3 0 4 -4 4 -9c0 -23 -35 -86 -90 -86c-56 0 -77 53 -133 53c-23 0 -55 -44 -61 -44c-4 0 -5 2 -5 6c0 29 41 89 93 89z" />
    <glyph glyph-name="uni030B" unicode="&#x30b;" horiz-adv-x="282" 
d="M254 541c-2 0 -7 6 -7 12c0 8 72 93 115 126c5 3 16 5 26 5c16 0 39 -4 39 -24c0 -35 -165 -119 -173 -119zM126 541c-2 0 -7 6 -7 12c0 8 72 93 115 126c5 3 16 5 26 5c16 0 39 -4 39 -24c0 -35 -165 -119 -173 -119z" />
    <glyph glyph-name="endash" unicode="&#x2013;" horiz-adv-x="486" 
d="M502 262c4 0 6 -6 6 -13c0 -14 -10 -42 -22 -49h-416c-4 0 -6 6 -6 13c0 14 10 42 22 49h416z" />
    <glyph glyph-name="emdash" unicode="&#x2014;" horiz-adv-x="724" 
d="M738 262c4 0 6 -6 6 -13c0 -14 -10 -42 -22 -49h-652c-4 0 -6 6 -6 13c0 14 10 42 22 49h652z" />
    <glyph glyph-name="quoteleft" unicode="&#x2018;" horiz-adv-x="148" 
d="M122 555c18 94 124 151 132 151c7 0 12 -7 14 -18c-63 -36 -81 -82 -83 -91c-5 -26 30 -44 25 -72c-5 -24 -39 -43 -69 -43c-7 0 -12 1 -18 3c-6 13 -6 45 -1 70z" />
    <glyph glyph-name="quoteright" unicode="&#x2019;" horiz-adv-x="148" 
d="M260 635c-18 -94 -123 -151 -131 -151c-7 0 -13 7 -15 18c63 36 82 82 84 91c5 26 -29 44 -24 72c5 24 38 43 68 43c7 0 12 -1 18 -3c6 -13 5 -45 0 -70z" />
    <glyph glyph-name="quotesinglbase" unicode="&#x201a;" horiz-adv-x="148" 
d="M147 53c-18 -94 -123 -150 -131 -150c-7 0 -13 6 -15 17c63 36 82 82 84 91c5 26 -30 44 -25 72c5 24 39 43 69 43c7 0 12 -1 18 -3c6 -13 5 -45 0 -70z" />
    <glyph glyph-name="quotedblleft" unicode="&#x201c;" horiz-adv-x="286" 
d="M256 555c18 94 123 151 131 151c7 0 13 -7 15 -18c-63 -36 -82 -82 -84 -91c-5 -26 30 -44 25 -72c-5 -24 -38 -43 -68 -43c-7 0 -13 1 -19 3c-6 13 -5 45 0 70zM122 555c18 94 124 151 132 151c7 0 12 -7 14 -18c-63 -36 -81 -82 -83 -91c-5 -26 30 -44 25 -72
c-5 -24 -39 -43 -69 -43c-7 0 -12 1 -18 3c-6 13 -6 45 -1 70z" />
    <glyph glyph-name="quotedblright" unicode="&#x201d;" horiz-adv-x="287" 
d="M394 635c-18 -94 -124 -151 -132 -151c-7 0 -12 7 -14 18c63 36 81 82 83 91c5 26 -29 44 -24 72c5 24 38 43 68 43c7 0 12 -1 18 -3c6 -13 6 -45 1 -70zM260 635c-18 -94 -123 -151 -131 -151c-7 0 -13 7 -15 18c63 36 82 82 84 91c5 26 -29 44 -24 72c5 24 38 43 68 43
c7 0 12 -1 18 -3c6 -13 5 -45 0 -70z" />
    <glyph glyph-name="quotedblbase" unicode="&#x201e;" horiz-adv-x="286" 
d="M280 51c-18 -94 -123 -150 -131 -150c-7 0 -13 6 -15 17c63 36 81 82 83 91c5 26 -29 44 -24 72c5 24 39 43 69 43c7 0 12 -1 18 -3c6 -13 5 -45 0 -70zM147 53c-18 -94 -123 -150 -131 -150c-7 0 -13 6 -15 17c63 36 82 82 84 91c5 26 -30 44 -25 72c5 24 39 43 69 43
c7 0 12 -1 18 -3c6 -13 5 -45 0 -70z" />
    <glyph glyph-name="dagger" unicode="&#x2020;" horiz-adv-x="278" 
d="M170 371c-10 0 -10 0 -73 -381c-9 4 -21 5 -31 5s-21 -1 -33 -5c32 145 52 226 80 371c1 5 0 10 -5 10h-14c-35 0 -60 -3 -99 -5c6 19 11 46 12 61c38 -2 62 -5 97 -5h14c12 0 12 16 39 207c11 -2 21 -4 31 -4s21 2 33 4c-48 -196 -55 -207 -41 -207h13c35 0 61 3 100 5
c-13 -48 -8 -24 -12 -61c-38 2 -63 5 -98 5h-13z" />
    <glyph glyph-name="daggerdbl" unicode="&#x2021;" horiz-adv-x="307" 
d="M-12 191c8 24 9 31 12 62l111 -5c9 0 9 0 31 122c1 5 -1 9 -6 9h-13c-35 0 -60 -3 -99 -5c6 19 11 46 12 61c39 -2 61 -5 96 -5h14c14 0 14 34 38 199c11 -2 21 -4 31 -4s21 2 33 4c-45 -188 -52 -199 -39 -199h13c35 0 60 3 99 5c-10 -36 -11 -55 -12 -61
c-39 2 -62 5 -97 5h-13c-8 0 -7 2 -25 -87c-5 -29 -13 -44 -1 -44l113 5c-13 -49 -8 -24 -12 -62l-111 6c-13 -3 -8 -17 -39 -207c-9 4 -21 5 -31 5s-21 -1 -33 -5c42 192 56 207 41 207z" />
    <glyph glyph-name="bullet" unicode="&#x2022;" horiz-adv-x="376" 
d="M138 263c11 59 66 108 121 108s90 -49 79 -108s-66 -108 -121 -108s-90 49 -79 108z" />
    <glyph glyph-name="ellipsis" unicode="&#x2026;" horiz-adv-x="648" 
d="M517 32c0 38 32 70 65 70c26 0 44 -19 44 -45c0 -37 -34 -71 -67 -71c-26 0 -42 20 -42 46zM282 32c0 37 31 70 64 70c26 0 44 -19 44 -45c0 -37 -33 -71 -66 -71c-26 0 -42 20 -42 46zM45 32c0 37 31 70 64 70c26 0 44 -19 44 -45c0 -37 -33 -71 -66 -71
c-26 0 -42 20 -42 46z" />
    <glyph glyph-name="perthousand" unicode="&#x2030;" horiz-adv-x="878" 
d="M755 300c-63 0 -109 -90 -109 -168c0 -51 17 -112 65 -112c63 0 102 96 102 175c0 47 -13 105 -58 105zM765 327c77 0 113 -64 113 -132c0 -96 -81 -203 -179 -203c-76 0 -116 63 -116 131c0 98 80 204 182 204zM-3 -12c-7 0 -13 3 -15 11l596 653c4 4 12 11 22 11
c12 0 23 -3 27 -13l-596 -650c-4 -4 -20 -12 -34 -12zM438 300c-63 0 -109 -90 -109 -168c0 -51 17 -112 65 -112c63 0 102 96 102 175c0 47 -13 105 -58 105zM448 327c77 0 113 -64 113 -132c0 -96 -81 -203 -179 -203c-76 0 -116 63 -116 131c0 98 80 204 182 204z
M226 646c-63 0 -109 -90 -109 -168c0 -51 17 -112 65 -112c63 0 102 96 102 175c0 47 -13 105 -58 105zM236 673c77 0 113 -64 113 -132c0 -96 -81 -203 -179 -203c-76 0 -116 63 -116 131c0 98 80 204 182 204z" />
    <glyph glyph-name="guilsinglleft" unicode="&#x2039;" horiz-adv-x="298" 
d="M321 423c16 -5 19 -11 19 -16c0 -12 -22 -27 -71 -69c-26 -22 -78 -72 -99 -91l63 -90c35 -48 44 -54 44 -63c0 -15 -18 -18 -25 -21c-1 2 -43 59 -161 154c-3 2 -4 6 -4 10c0 7 4 22 13 31c137 79 220 154 221 155z" />
    <glyph glyph-name="guilsinglright" unicode="&#x203a;" horiz-adv-x="298" 
d="M76 73c-16 5 -18 11 -18 15c0 14 19 26 68 69l99 90c-14 19 -47 69 -64 91c-37 48 -44 56 -44 62c0 15 19 20 26 23c1 -2 54 -76 160 -155c3 -5 5 -10 5 -16c0 -11 -4 -22 -12 -25c-134 -82 -206 -141 -220 -154z" />
    <glyph glyph-name="Euro" unicode="&#x20ac;" horiz-adv-x="614" 
d="M485 32c-44 -28 -112 -36 -171 -36c-152 0 -241 118 -247 244h-55c-3 0 -5 5 -5 10c0 11 8 32 17 37h45c2 22 7 44 14 66h-49c-3 0 -5 5 -5 10c0 11 8 32 17 37h55c57 124 178 233 323 233c58 0 134 -22 201 -43c0 0 -17 -108 -19 -117s-14 -14 -22 -14c-6 0 -9 0 -11 2
c0 29 -1 132 -154 132c-89 0 -186 -79 -234 -193h196c3 0 4 -5 4 -10c0 -11 -8 -32 -17 -37h-200c-6 -21 -11 -43 -13 -66h204c3 0 4 -5 4 -10c0 -11 -8 -32 -17 -37h-193c2 -112 57 -203 180 -203c163 0 207 103 220 103c4 0 19 -14 19 -23c-9 -16 -30 -48 -87 -85z" />
    <glyph glyph-name="n.ordn" horiz-adv-x="351" 
d="M212 494c0 -3 0 -17 -1 -22c0 0 -10 -52 -10 -55c9 16 83 125 133 125c27 0 39 -17 39 -42c0 -15 -8 -55 -12 -77l-19 -98c0 -2 -1 -8 -1 -11c0 -18 8 -23 15 -23c13 0 39 44 41 47c1 0 11 -12 11 -15c-5 -13 -43 -72 -78 -72c-26 0 -42 17 -42 48c0 40 27 144 27 170
c0 9 0 22 -12 22c-24 0 -107 -99 -124 -185l-10 -51c-7 -2 -16 -3 -23 -3s-22 1 -30 3l38 202c1 6 3 17 3 24c0 14 -5 21 -15 21c-13 0 -38 -44 -40 -47c-1 0 -11 12 -11 15c5 13 40 72 75 72c26 0 46 -17 46 -48z" />
    <glyph glyph-name="o.ordn" horiz-adv-x="258" 
d="M143 369c0 -53 18 -89 47 -89c48 0 76 85 76 146c0 52 -18 89 -46 89c-48 0 -77 -85 -77 -146zM89 363c0 94 75 179 142 179c51 0 89 -45 89 -110c0 -94 -74 -180 -141 -180c-51 0 -90 46 -90 111z" />
    <glyph glyph-name="Egrave.ordn" horiz-adv-x="391" 
d="M176 688c59 0 131 5 199 5v-25c0 -22 1 -43 1 -65c-2 -1 -7 -3 -12 -3c-4 0 -8 2 -8 5c-3 53 -29 57 -68 57h-36c-25 0 -49 -1 -52 -9c-7 -18 -9 -26 -12 -44l-22 -116c-1 -4 12 -5 25 -5h31c60 0 61 1 82 47c1 3 5 4 10 4c4 0 8 -1 10 -3l-25 -127c-2 -1 -6 -2 -10 -2
c-5 0 -9 1 -9 5c-3 38 -6 38 -11 42c-6 4 -42 5 -66 5c-17 0 -45 0 -46 -6l-20 -98c-4 -22 -7 -37 -7 -57c0 -13 0 -14 41 -14h31c24 0 62 1 82 11c14 7 36 32 53 67c2 3 6 4 11 4c6 0 12 -2 14 -4c-20 -36 -46 -81 -56 -110c-69 0 -158 4 -215 4c-41 0 -75 -3 -75 -3
c-1 1 -1 3 -1 5c0 7 1 13 3 13c8 0 42 8 46 16c9 19 13 37 18 62l49 245c4 22 8 47 7 62c-1 8 -31 15 -38 15c-1 0 -1 1 -1 3c0 5 2 13 4 15c0 0 32 -1 73 -1zM362 735c-11 0 -109 32 -109 49c0 8 13 16 39 16c5 0 10 0 12 -1c19 -13 67 -52 67 -57s-7 -7 -9 -7z" />
    <glyph glyph-name="F.ordn" horiz-adv-x="389" 
d="M91 256c-41 0 -75 -3 -75 -3c-1 1 -1 3 -1 5c0 7 1 13 3 13c8 0 42 8 46 16c9 19 13 37 18 62l49 245c4 22 8 47 7 62c-1 8 -31 15 -38 15c-1 0 -1 1 -1 3c0 5 2 13 4 15c0 0 32 -1 73 -1c57 0 129 5 198 5c-1 -9 -1 -17 -1 -25c0 -22 2 -43 2 -65c-2 -1 -8 -3 -13 -3
c-4 0 -8 2 -8 5c-2 53 -28 57 -67 57h-37c-24 0 -48 -1 -51 -9c-7 -18 -9 -26 -13 -44l-21 -116c-1 -4 12 -5 25 -5h30c61 0 62 1 83 47c1 3 5 4 9 4s9 -1 10 -3l-25 -127c-2 -1 -5 -2 -9 -2c-5 0 -9 1 -10 5c-2 38 -5 38 -10 42c-6 4 -42 5 -66 5c-18 0 -45 0 -46 -6
l-23 -114c-4 -19 -6 -33 -6 -52c0 -12 46 -16 46 -16c1 0 2 -4 2 -5c0 -4 -3 -12 -4 -13c-25 1 -49 3 -80 3z" />
    <glyph glyph-name="G.ordn" horiz-adv-x="442" 
d="M273 695c41 0 96 -15 145 -29c-9 -58 -13 -76 -15 -86c0 -5 -9 -6 -15 -6c-4 0 -7 1 -8 3c0 21 -1 91 -111 91c-102 0 -189 -127 -189 -233c0 -79 44 -156 127 -156c33 0 62 3 85 15c5 2 7 5 8 11l19 94c0 1 3 10 3 20c0 9 -40 17 -47 17c-1 0 -2 1 -2 3c0 5 3 12 6 15
c29 -2 45 -4 74 -4s48 2 74 4c0 -7 -1 -18 -4 -18c-7 0 -48 -6 -50 -25l-17 -92v-5c0 -8 1 -13 1 -17c0 -6 -1 -10 -16 -15c-36 -13 -74 -31 -163 -31c-98 0 -163 75 -163 172c0 128 118 272 258 272z" />
    <glyph glyph-name="H.ordn" horiz-adv-x="510" 
d="M269 496c82 0 88 1 89 5l18 92c5 23 8 37 8 61c0 11 -31 17 -39 17c0 0 -1 2 -1 4c0 4 3 12 6 14c28 -1 44 -4 73 -4c28 0 47 3 73 4v-2c0 -5 -2 -16 -5 -16c-5 0 -38 -7 -41 -15c-9 -18 -13 -37 -18 -61l-50 -248c-5 -23 -7 -41 -7 -60c0 -12 36 -16 36 -16
c1 0 2 -1 2 -3c0 -4 -3 -12 -4 -15c-25 1 -43 3 -71 3c-29 0 -46 -2 -75 -3c0 1 -1 3 -1 5c0 6 2 13 5 13c7 0 39 6 43 14c8 19 13 39 18 64l22 109v0c0 5 -12 6 -94 6c-98 0 -98 -1 -99 -8l-22 -109c-4 -23 -7 -41 -7 -60c0 -12 37 -16 37 -16s1 -1 1 -3
c0 -4 -3 -12 -4 -15c-25 1 -43 3 -71 3c-29 0 -45 -2 -75 -3c0 1 -1 3 -1 5c0 6 2 13 5 13c7 0 39 6 43 14c8 19 13 39 18 64l48 244c5 23 8 37 8 61c0 11 -31 17 -38 17c-1 0 -2 2 -2 4c0 4 3 12 6 14c28 -1 44 -4 73 -4c28 0 46 3 72 4v-2c0 -5 -2 -16 -5 -16
c-4 0 -38 -7 -42 -15c-8 -18 -14 -42 -17 -61l-17 -93v-1c0 -4 15 -5 102 -5z" />
    <glyph glyph-name="I.ordn" horiz-adv-x="263" 
d="M184 595l-49 -248c-4 -23 -7 -41 -7 -60c0 -12 37 -16 37 -16s1 -1 1 -3c0 -4 -3 -12 -4 -15c-25 1 -43 3 -71 3c-29 0 -45 -2 -75 -3c0 1 -1 3 -1 5c0 6 2 13 5 13c7 0 39 6 43 14c8 19 13 39 18 64l48 244c5 23 8 37 8 61c0 11 -31 17 -38 17c-1 0 -2 2 -2 4
c0 4 3 12 6 14c28 -1 44 -4 73 -4c28 0 46 3 72 4v-2c0 -5 -2 -16 -5 -16c-4 0 -38 -7 -42 -15c-8 -18 -13 -42 -17 -61z" />
    <glyph glyph-name="J.ordn" horiz-adv-x="336" 
d="M142 290l60 303c5 23 7 37 7 61c0 11 -30 17 -38 17c0 0 -1 2 -1 4c0 4 3 12 5 14c29 -1 45 -4 74 -4c28 0 46 3 72 4v-2c0 -5 -2 -16 -5 -16c-5 0 -39 -7 -42 -15c-8 -18 -14 -42 -18 -61l-55 -287c-30 -151 -177 -207 -177 -207c-2 0 -9 5 -9 11c0 2 1 8 1 8
c20 12 104 60 126 170z" />
    <glyph glyph-name="braceleft.ssup" horiz-adv-x="0" 
d="M3 12c0 108 82 153 82 221c0 40 -39 47 -72 59v6c0 9 2 22 8 31c52 14 100 29 100 96c0 39 -17 81 -17 124c0 73 63 201 184 201c2 0 3 -1 3 -4c0 -8 -8 -24 -15 -25c-14 -1 -117 -31 -117 -144c0 -39 11 -70 11 -113c0 -102 -62 -155 -99 -156c29 -1 59 -35 59 -86
c0 -97 -86 -140 -86 -222c0 -55 47 -94 73 -96c4 -1 7 -8 7 -16c0 -7 -2 -13 -6 -13c-68 0 -115 56 -115 137z" />
    <glyph glyph-name="parenright.sinf" horiz-adv-x="0" 
d="M269 457c0 -336 -222 -578 -277 -578c-5 0 -9 10 -9 18c0 4 1 7 3 8c43 20 224 250 224 572c0 126 -28 223 -65 244c0 0 -1 1 -1 2c0 6 10 25 17 25c49 0 108 -119 108 -291z" />
  </font>
</defs>
</svg>
